<ttFont>
          <CharString index="0">
            hlineto
            -105 callgsubr
            return
          </CharString>
          <CharString index="1">
            -101 callsubr
            -102 callsubr
            return
          </CharString>
          <CharString index="2">
            -100 callgsubr
            92 -107 callsubr
            return
          </CharString>
          <CharString index="3">
            hlineto
            -104 callgsubr
            return
          </CharString>
          <CharString index="4">
            vlineto
            -99 callgsubr
            return
          </CharString>
          <CharString index="5">
            -9 -103 callsubr
            return
          </CharString>
          <CharString index="6">
            -96 callsubr
            hvcurveto
            return
          </CharString>
          <CharString index="7">
            hlineto
            -99 callsubr
            return
          </CharString>
          <CharString index="8">
            7 2 -75 callgsubr
            return
          </CharString>
          <CharString index="9">
            -101 callsubr
            -87 callgsubr
            return
          </CharString>
          <CharString index="10">
            -90 callsubr
            hvcurveto
            return
          </CharString>
          <CharString index="11">
            -7 -80 callgsubr
            return
          </CharString>
          <CharString index="12">
            -81 callsubr
            vhcurveto
            return
          </CharString>
          <CharString index="13">
            vlineto
            -93 callgsubr
            return
          </CharString>
          <CharString index="14">
            -5 2 -3 7 return
          </CharString>
          <CharString index="15">
            rmoveto
            -106 callsubr
            return
          </CharString>
          <CharString index="16">
            hlineto
            -98 callsubr
            return
          </CharString>
          <CharString index="17">
            7 -66 callgsubr
            return
          </CharString>
          <CharString index="18">
            -88 callsubr
            -162 275 rlineto
            return
          </CharString>
          <CharString index="19">
            -106 callsubr
            183 -82 callsubr
            return
          </CharString>
          <CharString index="20">
            -83 callgsubr
            7 return
          </CharString>
          <CharString index="21">
            214 callgsubr
            161 callsubr
            hvcurveto
            -77 callgsubr
            return
          </CharString>
          <CharString index="22">
            -98 callgsubr
            -87 callsubr
            hvcurveto
            return
          </CharString>
          <CharString index="23">
            -88 callgsubr
            hvcurveto
            return
          </CharString>
          <CharString index="24">
            -2 3 -7 return
          </CharString>
          <CharString index="25">
            hlineto
            7 2 -3 -5 hvcurveto
            -166 vlineto
            -76 -43 -27 -48 vhcurveto
            -56 hlineto
            -7 -2 -3 -5 -58 callsubr
            return
          </CharString>
          <CharString index="26">
            3 -2 5 return
          </CharString>
          <CharString index="27">
            -100 callsubr
            -232 vlineto
            -80 -43 -44 callsubr
            53 36 94 hvcurveto
            232 -95 callgsubr
            return
          </CharString>
          <CharString index="28">
            623 -92 callsubr
            return
          </CharString>
          <CharString index="29">
            -14 -85 callgsubr
            return
          </CharString>
          <CharString index="30">
            -73 callsubr
            -192 281 rlineto
            50 hlineto
            72 52 37 94 hvcurveto
            162 vlineto
            -94 callgsubr
            vhcurveto
            return
          </CharString>
          <CharString index="31">
            -1 -79 callsubr
            return
          </CharString>
          <CharString index="32">
            hlineto
            -86 callsubr
            return
          </CharString>
          <CharString index="33">
            2 callgsubr
            -100 callsubr
            return
          </CharString>
          <CharString index="34">
            -106 callsubr
            210 -40 callgsubr
            182 -265 rlineto
            -6 4 4 -4 7 -34 callgsubr
            return
          </CharString>
          <CharString index="35">
            hlineto
            -67 callgsubr
            return
          </CharString>
          <CharString index="36">
            vlineto
            -64 callgsubr
            return
          </CharString>
          <CharString index="37">
            rlineto
            -6 4 3 -3 7 hhcurveto
            -83 callgsubr
            4 4 -4 6 -1 2 hvcurveto
            return
          </CharString>
          <CharString index="38">
            -39 -72 callsubr
            return
          </CharString>
          <CharString index="39">
            hlineto
            67 33 -25 -68 hvcurveto
            -51 vlineto
            -85 callsubr
            52 154 callgsubr
            vhcurveto
            endchar
          </CharString>
          <CharString index="40">
            rmoveto
            -7 -5 259 callgsubr
            -68 -111 rlineto
            -5 -3 1 -4 273 callsubr
            5 3 5 4 hvcurveto
            92 40 callsubr
          </CharString>
          <CharString index="41">
            -39 callsubr
            -79 -68 callgsubr
            79 vlineto
            46 -13 return
          </CharString>
          <CharString index="42">
            -37 100 callsubr
            35 vlineto
            67 35 42 64 vhcurveto
            70 hlineto
            67 27 -31 -68 hvcurveto
            -25 vlineto
            -85 callsubr
            26 vlineto
            83 -43 43 -81 vhcurveto
            -70 266 callsubr
            161 149 callsubr
            return
          </CharString>
          <CharString index="43">
            vlineto
            -71 callgsubr
            return
          </CharString>
          <CharString index="44">
            hlineto
            -69 callgsubr
            return
          </CharString>
          <CharString index="45">
            3 2 7 return
          </CharString>
          <CharString index="46">
            -67 -37 6 callsubr
            return
          </CharString>
          <CharString index="47">
            6 callgsubr
            -109 -91 callsubr
            108 hlineto
            return
          </CharString>
          <CharString index="48">
            -85 callsubr
            111 -94 callsubr
            -156 -111 -4 callgsubr
            endchar
          </CharString>
          <CharString index="49">
            hvcurveto
            -57 callsubr
            return
          </CharString>
          <CharString index="50">
            -20 -71 callsubr
            return
          </CharString>
          <CharString index="51">
            -6 109 265 rmoveto
            73 callsubr
            -100 -64 callsubr
            22 -265 -13 callsubr
            -205 -55 callsubr
            92 vlineto
            5 2 3 243 callgsubr
            3 7 hvcurveto
            127 9 callgsubr
            -88 -23 callsubr
            return
          </CharString>
          <CharString index="52">
            hlineto
            -46 callgsubr
            return
          </CharString>
          <CharString index="53">
            -5 -3 -3 -4 -3 1 -1 1 -2 hvcurveto
            86 -128 rlineto
            -6 4 3 -3 7 hhcurveto
            13 hlineto
            5 3 3 4 2 -1 2 -1 2 hvcurveto
            return
          </CharString>
          <CharString index="54">
            vlineto
            -98 callgsubr
            20 hlineto
            -84 callsubr
            return
          </CharString>
          <CharString index="55">
            hlineto
            48 34 14 34 18 hvcurveto
            4 return
          </CharString>
          <CharString index="56">
            rmoveto
            8 callgsubr
            197 -100 callsubr
            -336 33 rmoveto
            -9 callgsubr
            return
          </CharString>
          <CharString index="57">
            13 callsubr
            vlineto
            -76 -43 -27 -48 vhcurveto
            return
          </CharString>
          <CharString index="58">
            hlineto
            -61 callsubr
            return
          </CharString>
          <CharString index="59">
            vlineto
            -31 callgsubr
            return
          </CharString>
          <CharString index="60">
            261 callsubr
            175 -100 callsubr
            -110 -474 23 callgsubr
            -206 -23 callsubr
            return
          </CharString>
          <CharString index="61">
            81 43 43 83 hvcurveto
            15 -18 callsubr
            -14 vlineto
            -68 -27 -31 -67 vhcurveto
            -100 -12 callgsubr
            150 -20 callsubr
            160 -95 callgsubr
            102 -107 callsubr
            return
          </CharString>
          <CharString index="62">
            vlineto
            -56 callgsubr
            return
          </CharString>
          <CharString index="63">
            -22 -51 vhcurveto
            -16 -91 callsubr
            15 hlineto
            72 return
          </CharString>
          <CharString index="64">
            rmoveto
            178 callsubr
            46 hlineto
            return
          </CharString>
          <CharString index="65">
            -34 callsubr
            -14 hlineto
            -74 callgsubr
            hvcurveto
            -369 vlineto
            83 callsubr
            364 -94 callsubr
            return
          </CharString>
          <CharString index="66">
            152 callgsubr
            endchar
          </CharString>
          <CharString index="67">
            rmoveto
            -5 -2 -3 -7 vhcurveto
            -224 hlineto
            -17 callsubr
            return
          </CharString>
          <CharString index="68">
            -98 callsubr
            67 hlineto
            51 43 -22 -80 hvcurveto
            return
          </CharString>
          <CharString index="69">
            -106 callsubr
            77 -44 callgsubr
            return
          </CharString>
          <CharString index="70">
            58 -104 callsubr
            -58 hlineto
            -81 -53 -50 -83 hvcurveto
            return
          </CharString>
          <CharString index="71">
            -5 -3 -2 return
          </CharString>
          <CharString index="72">
            29 18 13 43 43 vvcurveto
            83 -38 52 -91 -91 -43 -52 -84 -46 16 -39 33 -20 vhcurveto
            -4 vlineto
            -63 -6 -34 -34 -62 vvcurveto
            -95 vlineto
            -73 43 -33 81 vhcurveto
            61 hlineto
            38 34 8 28 18 hvcurveto
            4 -120 hlineto
            -85 callsubr
            231 -94 callsubr
            -30 104 callgsubr
            -61 hlineto
            -67 -27 21 58 hvcurveto
            93 vlineto
            58 27 19 67 vhcurveto
            return
          </CharString>
          <CharString index="73">
            63 29 26 26 14 hvcurveto
            4 -43 hlineto
            -85 callsubr
            492 -45 callsubr
            return
          </CharString>
          <CharString index="74">
            hlineto
            81 43 33 73 hvcurveto
            54 vlineto
            73 -43 31 -81 vhcurveto
            -81 269 callgsubr
            159 -21 callsubr
            return
          </CharString>
          <CharString index="75">
            vlineto
            -37 callgsubr
            return
          </CharString>
          <CharString index="76">
            -11 callsubr
            128 -80 callsubr
            return
          </CharString>
          <CharString index="77">
            13 callgsubr
            74 99 vlineto
            12 callsubr
            50 vlineto
            77 -46 36 -68 -70 -44 -36 -76 vhcurveto
            -44 vlineto
            -85 callsubr
            44 vlineto
            61 32 23 52 52 32 -24 -61 vhcurveto
            -50 6 callgsubr
            return
          </CharString>
          <CharString index="78">
            299 209 callsubr
            300 -95 callgsubr
            194 7 callgsubr
            -98 -19 callgsubr
            -211 -299 161 callgsubr
            254 257 callsubr
            122 -262 rlineto
            -7 4 3 -2 6 hhcurveto
            18 hlineto
            -76 callgsubr
            6 -3 hvcurveto
            -123 260 rlineto
            4 vlineto
            68 9 43 50 75 vvcurveto
            100 9 callgsubr
            -225 -85 callgsubr
            -625 vlineto
            -98 callgsubr
            return
          </CharString>
          <CharString index="79">
            230 callsubr
            -4 vlineto
            0 -40 -37 -52 -57 vhcurveto
            -93 -102 -26 callsubr
            15 153 callsubr
            125 140 92 102 rlineto
            4 -216 -41 callsubr
          </CharString>
          <CharString index="80">
            vlineto
            -58 -27 -21 -67 vhcurveto
            -96 hlineto
            -62 -22 -2 callsubr
            return
          </CharString>
          <CharString index="81">
            191 callsubr
            -3 -2 vvcurveto
            -4 3 -3 5 vhcurveto
            return
          </CharString>
          <CharString index="82">
            28 vlineto
            7 -3 2 -5 vhcurveto
            -20 hlineto
            230 callgsubr
            return
          </CharString>
          <CharString index="83">
            127 callgsubr
            -7 -11 callsubr
            7 28 callgsubr
            return
          </CharString>
          <CharString index="84">
            hlineto
            -21 callgsubr
            return
          </CharString>
          <CharString index="85">
            -131 47 rlineto
            -43 15 -25 19 45 vvcurveto
            27 vlineto
            31 24 38 67 vhcurveto
            161 -104 callsubr
            -161 hlineto
            -87 -35 -45 -67 -63 23 -32 70 -24 hvcurveto
            132 -46 rlineto
            49 -17 11 -34 -44 vvcurveto
            -30 vlineto
            -54 -34 -26 -67 vhcurveto
            -170 -91 callsubr
            return
          </CharString>
          <CharString index="86">
            -20 callsubr
            137 -95 callgsubr
            return
          </CharString>
          <CharString index="87">
            hlineto
            0 callsubr
            return
          </CharString>
          <CharString index="88">
            -98 -32 callsubr
            78 hlineto
            5 5 0 1 5 hvcurveto
            -107 -107 38 callgsubr
            14 280 callgsubr
            148 rlineto
            18 callgsubr
          </CharString>
          <CharString index="89">
            vlineto
            77 -26 36 -68 -70 -24 -36 -76 vhcurveto
            -14 vlineto
            -85 callsubr
            14 vlineto
            61 12 23 52 52 12 -24 -61 vhcurveto
            return
          </CharString>
          <CharString index="90">
            -5 -3 2 7 hvcurveto
            242 -74 callsubr
            return
          </CharString>
          <CharString index="91">
            84 callgsubr
            -250 4 hlineto
            14 callsubr
            return
          </CharString>
          <CharString index="92">
            hlineto
            72 52 37 94 hvcurveto
            57 callsubr
            return
          </CharString>
          <CharString index="93">
            hlineto
            -100 callgsubr
            return
          </CharString>
          <CharString index="94">
            rmoveto
            -104 callgsubr
            return
          </CharString>
          <CharString index="95">
            -30 callsubr
            -121 hlineto
            -101 callsubr
            -95 vlineto
            39 callgsubr
            return
          </CharString>
          <CharString index="96">
            hlineto
            -106 callsubr
            return
          </CharString>
          <CharString index="97">
            39 -52 callsubr
            -136 hlineto
            -98 callgsubr
            return
          </CharString>
          <CharString index="98">
            -49 callsubr
            49 176 callgsubr
            -275 81 callgsubr
            return
          </CharString>
          <CharString index="99">
            71 90 136 rmoveto
            -37 callgsubr
            120 173 callgsubr
            53 vlineto
            196 -358 -90 153 vvcurveto
            58 -48 callsubr
            120 7 callgsubr
            -29 vlineto
            -85 callsubr
            30 9 callgsubr
            -120 237 callsubr
            -60 vlineto
            -180 358 91 -171 vvcurveto
            -50 -19 callgsubr
            -120 -55 callsubr
            39 -94 callsubr
            return
          </CharString>
          <CharString index="100">
            rmoveto
            6 -3 -5 3 -7 hhcurveto
            -30 hlineto
            -5 -3 -4 -5 4 hvcurveto
            92 -112 rlineto
            -5 4 5 -3 273 callsubr
            1 4 5 -3 hvcurveto
            endchar
          </CharString>
          <CharString index="101">
            5 callgsubr
            235 -248 rlineto
            -29 -16 -31 -16 -43 hhcurveto
            -257 47 callsubr
            return
          </CharString>
          <CharString index="102">
            -81 -53 -53 -83 hvcurveto
            return
          </CharString>
          <CharString index="103">
            rmoveto
            81 39 38 83 108 callsubr
            -68 -23 -25 -67 339 callsubr
            -23 25 68 108 callsubr
            -83 39 -38 81 vhcurveto
            return
          </CharString>
          <CharString index="104">
            103 callsubr
            32 callgsubr
            return
          </CharString>
          <CharString index="105">
            21 68 hvcurveto
            9 -94 callsubr
            -10 vlineto
            return
          </CharString>
          <CharString index="106">
            33 callgsubr
            43 hlineto
            -93 callgsubr
            -492 vlineto
            -98 callgsubr
            return
          </CharString>
          <CharString index="107">
            9 7 8 10 hvcurveto
            return
          </CharString>
          <CharString index="108">
            -7 -4 -2 -7 -4 hvcurveto
            -66 -111 rlineto
            -5 -3 1 -4 5 hhcurveto
            9 hlineto
            5 4 3 5 4 hvcurveto
            82 18 callsubr
            return
          </CharString>
          <CharString index="109">
            rmoveto
            -51 callgsubr
            return
          </CharString>
          <CharString index="110">
            -83 53 29 callsubr
            return
          </CharString>
          <CharString index="111">
            53 -17 -48 17 -52 hhcurveto
            -81 -53 -40 -93 hvcurveto
            return
          </CharString>
          <CharString index="112">
            -100 callsubr
            -119 -64 callsubr
            return
          </CharString>
          <CharString index="113">
            38 68 hvcurveto
            return
          </CharString>
          <CharString index="114">
            vlineto
            -99 callsubr
            return
          </CharString>
          <CharString index="115">
            -46 hlineto
            -101 callsubr
            return
          </CharString>
          <CharString index="116">
            282 -79 callgsubr
            return
          </CharString>
          <CharString index="117">
            52 callgsubr
            309 -92 callsubr
            435 -100 callsubr
            -140 vlineto
            -4 -1 -3 -7 -1 vhcurveto
            -49 -6 -35 -24 -16 -40 rrcurveto
            46 -18 -41 25 -60 hhcurveto
            -7 hlineto
            -81 -53 -46 -83 hvcurveto
            -145 vlineto
            -83 53 -45 81 vhcurveto
            7 hlineto
            59 42 24 46 18 hvcurveto
            return
          </CharString>
          <CharString index="118">
            173 callgsubr
            137 vlineto
            46 -13 33 -26 20 vhcurveto
            5 8 2 11 13 vvcurveto
            142 -95 callgsubr
            104 -107 callsubr
            endchar
          </CharString>
          <CharString index="119">
            72 53 36 94 hvcurveto
            return
          </CharString>
          <CharString index="120">
            -100 callsubr
            -166 return
          </CharString>
          <CharString index="121">
            -50 callgsubr
            199 -100 callsubr
            return
          </CharString>
          <CharString index="122">
            -92 callsubr
            354 88 callgsubr
            -81 -53 -53 -83 hvcurveto
            return
          </CharString>
          <CharString index="123">
            -68 -37 -38 -67 vhcurveto
            return
          </CharString>
          <CharString index="124">
            -5 -3 2 7 66 callgsubr
            return
          </CharString>
          <CharString index="125">
            112 rlineto
            5 4 -3 4 -5 hhcurveto
            return
          </CharString>
          <CharString index="126">
            rmoveto
            -68 -37 -33 -67 vhcurveto
            -7 hlineto
            -67 -37 33 68 hvcurveto
            144 vlineto
            68 37 33 282 callgsubr
            37 -33 -68 hvcurveto
            return
          </CharString>
          <CharString index="127">
            237 callsubr
            -371 -32 callsubr
            return
          </CharString>
          <CharString index="128">
            53 53 83 hvcurveto
            return
          </CharString>
          <CharString index="129">
            rmoveto
            -13 vlineto
            -75 29 -32 64 vhcurveto
            4 hlineto
            64 30 32 75 195 callsubr
            -8 -85 callgsubr
            -11 vlineto
            -63 -18 -23 -52 vhcurveto
            -4 hlineto
            -49 -18 23 63 195 callsubr
            -10 -85 callgsubr
            endchar
          </CharString>
          <CharString index="130">
            hlineto
            7 2 -3 -5 hvcurveto
            -142 227 callsubr
            122 callsubr
            return
          </CharString>
          <CharString index="131">
            -26 40 219 callsubr
            159 callgsubr
            -347 4 hlineto
            344 576 rlineto
            2 3 0 3 2 vvcurveto
            19 -103 callgsubr
            -353 -91 callsubr
            327 -4 hlineto
            -344 -577 rlineto
            340 callgsubr
            -4 vvcurveto
            return
          </CharString>
          <CharString index="132">
            hlineto
            -98 callgsubr
            12 hlineto
            -84 callsubr
            return
          </CharString>
          <CharString index="133">
            182 callsubr
            42 -53 callgsubr
            return
          </CharString>
          <CharString index="134">
            hlineto
            -102 -133 rlineto
            -57 callgsubr
            -102 133 rlineto
            return
          </CharString>
          <CharString index="135">
            53 callgsubr
            -125 20 callsubr
            return
          </CharString>
          <CharString index="136">
            -50 81 vhcurveto
            return
          </CharString>
          <CharString index="137">
            -100 callsubr
            -109 -64 callsubr
            -148 126 callsubr
            -67 100 callsubr
            65 vlineto
            67 35 42 64 vhcurveto
            return
          </CharString>
          <CharString index="138">
            vlineto
            42 -10 32 42 callgsubr
            return
          </CharString>
          <CharString index="139">
            -45 callsubr
            -20 -85 callgsubr
            return
          </CharString>
          <CharString index="140">
            -23 callgsubr
            -119 vlineto
            68 callgsubr
            return
          </CharString>
          <CharString index="141">
            -53 -13 callgsubr
            return
          </CharString>
          <CharString index="142">
            -50 callsubr
            -37 hlineto
            37 -7 -27 20 -54 hhcurveto
            -115 -75 callsubr
            114 hlineto
            47 13 -14 -39 hvcurveto
            -5 -71 callsubr
            -162 275 rlineto
            return
          </CharString>
          <CharString index="143">
            -95 callgsubr
            236 -100 callsubr
            return
          </CharString>
          <CharString index="144">
            67 146 callsubr
            return
          </CharString>
          <CharString index="145">
            -4 hlineto
            -29 -16 -10 -31 -47 vvcurveto
            return
          </CharString>
          <CharString index="146">
            41 68 hvcurveto
            return
          </CharString>
          <CharString index="147">
            18 callsubr
            endchar
          </CharString>
          <CharString index="148">
            69 25 -29 -66 hvcurveto
            return
          </CharString>
          <CharString index="149">
            92 callsubr
            125 7 callgsubr
            -369 -19 callgsubr
            return
          </CharString>
          <CharString index="150">
            233 callgsubr
            206 249 callgsubr
            -444 rmoveto
            63 29 26 26 14 hvcurveto
            4 -78 hlineto
            -24 callgsubr
            -179 -91 callsubr
            179 173 callgsubr
            498 -45 callsubr
            -206 237 callsubr
            -208 -32 callsubr
            return
          </CharString>
          <CharString index="151">
            -22 callgsubr
            -265 vlineto
            return
          </CharString>
          <CharString index="152">
            rmoveto
            54 callgsubr
            return
          </CharString>
          <CharString index="153">
            rmoveto
            5 callgsubr
            return
          </CharString>
          <CharString index="154">
            503 -92 callsubr
            return
          </CharString>
          <CharString index="155">
            63 31 -20 -56 -59 -30 -24 201 callsubr
            -28 vlineto
            -101 53 -55 91 vhcurveto
            66 -35 callgsubr
            return
          </CharString>
          <CharString index="156">
            hlineto
            119 callsubr
            return
          </CharString>
          <CharString index="157">
            vlineto
            115 callgsubr
            return
          </CharString>
          <CharString index="158">
            -41 88 -147 rmoveto
            113 25 99 84 29 hvcurveto
            170 465 rlineto
            7 2 263 callsubr
            -16 hlineto
            -74 callgsubr
            -2 hvcurveto
            -163 -445 rlineto
            -4 hlineto
            -163 445 273 callgsubr
            -16 hlineto
            -74 callgsubr
            2 hvcurveto
            170 -465 rlineto
            -6 2 3 -3 6 hhcurveto
            10 hlineto
            -66 -26 -20 -80 -88 hhcurveto
            -29 -91 callsubr
            return
          </CharString>
          <CharString index="159">
            64 callgsubr
            231 -243 rlineto
            -32 -16 return
          </CharString>
          <CharString index="160">
            46 344 hmoveto
            193 callgsubr
            -130 150 callgsubr
            130 hlineto
            67 37 -41 -68 hvcurveto
            -49 vlineto
            -7 3 -2 5 vhcurveto
            14 hlineto
            178 callgsubr
            return
          </CharString>
          <CharString index="161">
            127 callgsubr
            -7 hlineto
            -1 hlineto
            -2 hlineto
            -263 hlineto
            -38 callsubr
            227 158 callgsubr
            return
          </CharString>
          <CharString index="162">
            4 4 4 5 4 vvcurveto
            3 -1 2 -2 2 vhcurveto
            return
          </CharString>
          <CharString index="163">
            -49 callsubr
            132 -33 callgsubr
            -37 callsubr
            120 callsubr
            return
          </CharString>
          <CharString index="164">
            162 -95 callgsubr
            return
          </CharString>
          <CharString index="165">
            261 rmoveto
            25 callgsubr
            -96 hlineto
            13 callgsubr
            118 24 vlineto
            75 50 30 91 hvcurveto
            4 vlineto
            42 -10 27 42 callgsubr
            -566 -227 rmoveto
            227 -95 callgsubr
            258 hlineto
            69 25 -28 -61 hvcurveto
            -4 vlineto
            -75 -30 -18 -64 vhcurveto
            -163 hlineto
            -49 -37 -17 -32 -14 hvcurveto
            return
          </CharString>
          <CharString index="166">
            -135 180 callsubr
            184 -14 callsubr
            return
          </CharString>
          <CharString index="167">
            24 23 hvcurveto
            55 callsubr
            -3 3 rlineto
            3 -3 -2 1 -3 hhcurveto
            -4 318 callgsubr
            hvcurveto
            -27 -27 return
          </CharString>
          <CharString index="168">
            rmoveto
            -24 callgsubr
            -90 -12 callgsubr
            90 hlineto
            67 37 -41 -68 hvcurveto
            -403 320 rmoveto
            129 callgsubr
            return
          </CharString>
          <CharString index="169">
            vlineto
            94 -53 36 -72 vhcurveto
            -93 -91 callsubr
            94 hlineto
            51 43 -22 -80 hvcurveto
            return
          </CharString>
          <CharString index="170">
            -85 callgsubr
            -625 vlineto
            -85 callsubr
            return
          </CharString>
          <CharString index="171">
            115 callsubr
            157 -100 callsubr
            return
          </CharString>
          <CharString index="172">
            hlineto
            81 55 55 185 callsubr
            -39 -43 -67 vhcurveto
            -86 hlineto
            -67 -39 43 68 hvcurveto
            72 vlineto
            68 31 41 67 vhcurveto
            157 hlineto
            34 15 18 28 hvcurveto
            return
          </CharString>
          <CharString index="173">
            81 callsubr
            vlineto
            return
          </CharString>
          <CharString index="174">
            85 9 rmoveto
            80 callgsubr
            return
          </CharString>
          <CharString index="175">
            -11 250 95 callsubr
            236 vlineto
            197 389 rlineto
            6 3 -3 3 -5 hhcurveto
            -18 hlineto
            -74 callgsubr
            -3 hvcurveto
            -176 -350 rlineto
            -4 hlineto
            -176 350 rlineto
            7 -3 263 callsubr
            -18 hlineto
            -5 -3 -3 -6 3 hvcurveto
            197 -389 rlineto
            -236 vlineto
            -98 callgsubr
            return
          </CharString>
          <CharString index="176">
            rmoveto
            76 callgsubr
            return
          </CharString>
          <CharString index="177">
            397 rmoveto
            -4 hlineto
            33 -18 -33 13 120 callgsubr
            -4 hlineto
            53 -17 -48 17 -52 hhcurveto
            return
          </CharString>
          <CharString index="178">
            300 callgsubr
            -102 hlineto
            3 callsubr
            33 hlineto
            47 35 14 34 18 hvcurveto
            4 -231 hlineto
            -98 callgsubr
            13 -91 callgsubr
          </CharString>
          <CharString index="179">
            7 callgsubr
            -364 vlineto
            -85 callsubr
            365 9 callgsubr
            return
          </CharString>
          <CharString index="180">
            -6 callgsubr
            100 -48 callsubr
            88 7 callgsubr
            return
          </CharString>
          <CharString index="181">
            285 callsubr
            -240 -11 callsubr
            121 38 callsubr
            return
          </CharString>
          <CharString index="182">
            rmoveto
            25 callgsubr
            -66 hlineto
            -78 -36 44 92 hvcurveto
            24 hlineto
            75 50 30 81 61 -35 return
          </CharString>
          <CharString index="183">
            rmoveto
            -98 callsubr
            22 hlineto
            47 27 -14 -42 hvcurveto
            -6 vlineto
            -51 -25 -18 -52 vhcurveto
            -5 hlineto
            -39 -47 5 62 hvcurveto
            19 -94 callsubr
            -20 vlineto
            -78 57 -16 59 vhcurveto
            5 hlineto
            78 29 32 66 hvcurveto
            6 vlineto
            33 -12 29 -40 6 vhcurveto
            41 10 11 32 28 vvcurveto
            8 vlineto
            57 -29 36 -81 vhcurveto
            -5 hlineto
            -81 -32 -33 -60 hvcurveto
            -23 vlineto
            -85 callsubr
            22 vlineto
            44 16 22 67 vhcurveto
            5 hlineto
            67 13 -27 -39 hvcurveto
            -6 vlineto
            -41 -17 -15 -57 vhcurveto
            endchar
          </CharString>
          <CharString index="184">
            83 hvcurveto
            123 vlineto
            83 -53 return
          </CharString>
          <CharString index="185">
            246 -76 callsubr
            350 hlineto
            183 callsubr
            -260 -200 83 callgsubr
            235 181 rlineto
            -182 vlineto
            -85 callsubr
            209 vlineto
            245 189 rlineto
            return
          </CharString>
          <CharString index="186">
            -5 -2 3 5 hvcurveto
            114 callgsubr
            return
          </CharString>
          <CharString index="187">
            598 rmoveto
            -105 callgsubr
            return
          </CharString>
          <CharString index="188">
            101 callgsubr
            -4 return
          </CharString>
          <CharString index="189">
            -92 callsubr
            39 247 callgsubr
            return
          </CharString>
          <CharString index="190">
            -69 -47 -35 -65 vhcurveto
            -72 -55 callsubr
            return
          </CharString>
          <CharString index="191">
            -40 272 callsubr
            -10 -103 callsubr
            19 hlineto
            52 27 16 41 hvcurveto
            10 vlineto
            42 -27 15 -52 vhcurveto
            4 vlineto
            return
          </CharString>
          <CharString index="192">
            -59 callgsubr
            348 vlineto
            17 callgsubr
            return
          </CharString>
          <CharString index="193">
            rmoveto
            -18 callgsubr
            return
          </CharString>
          <CharString index="194">
            98 callgsubr
            -51 vlineto
            -83 43 -43 81 vhcurveto
            return
          </CharString>
          <CharString index="195">
            224 callgsubr
            -42 vlineto
            -104 10 -61 0 vhcurveto
            -3 -1 -138 208 rlineto
            82 callgsubr
            return
          </CharString>
          <CharString index="196">
            hlineto
            81 53 50 83 hvcurveto
            return
          </CharString>
          <CharString index="197">
            622 rmoveto
            -50 25 -19 49 vhcurveto
            14 hlineto
            49 27 19 50 hvcurveto
            42 vlineto
            50 -27 18 -49 vhcurveto
            -14 hlineto
            -49 -25 -18 -50 hvcurveto
            24 -1 rmoveto
            36 15 10 35 vhcurveto
            14 hlineto
            36 15 -10 -36 hvcurveto
            -40 vlineto
            -37 -15 -10 -36 vhcurveto
            -14 hlineto
            -35 -15 10 37 hvcurveto
            return
          </CharString>
          <CharString index="198">
            rmoveto
            -125 -130 rlineto
            -4 -5 -1 -2 -6 vvcurveto
            -16 vlineto
            -7 5 -5 6 7 vhcurveto
            133 138 rlineto
            5 6 4 3 10 vvcurveto
            14 vlineto
            10 -4 3 -5 6 vhcurveto
            -133 138 rlineto
            -6 7 -5 -5 -7 vvcurveto
            -16 vlineto
            -6 1 -2 4 -5 vhcurveto
            return
          </CharString>
          <CharString index="199">
            -46 callgsubr
            114 callsubr
            return
          </CharString>
          <CharString index="200">
            hlineto
            -30 callsubr
            return
          </CharString>
          <CharString index="201">
            vlineto
            58 27 19 67 vhcurveto
            129 -20 callsubr
            107 -95 callgsubr
            return
          </CharString>
          <CharString index="202">
            hmoveto
            -84 callsubr
            return
          </CharString>
          <CharString index="203">
            170 callsubr
            -76 -59 -184 -141 83 callgsubr
            return
          </CharString>
          <CharString index="204">
            -13 callsubr
            -204 121 callgsubr
          </CharString>
          <CharString index="205">
            vlineto
            146 callgsubr
            return
          </CharString>
          <CharString index="206">
            rmoveto
            -81 -36 -38 -83 hvcurveto
            -50 vlineto
            -83 36 -39 81 vhcurveto
            16 hlineto
            81 35 39 83 hvcurveto
            50 vlineto
            83 -35 38 -81 vhcurveto
            -28 vmoveto
            67 19 -26 -68 hvcurveto
            -48 vlineto
            -68 -19 -27 -67 vhcurveto
            -16 hlineto
            -67 -20 27 68 hvcurveto
            48 vlineto
            68 20 26 67 vhcurveto
            return
          </CharString>
          <CharString index="207">
            -32 callsubr
            169 -104 callsubr
            -169 -55 callsubr
            return
          </CharString>
          <CharString index="208">
            219 callsubr
            332 -104 callsubr
            -311 70 hlineto
            40 16 27 34 26 vhcurveto
            202 151 rlineto
            38 28 26 46 51 vvcurveto
            43 50 callsubr
            -82 hlineto
            -81 -53 -50 -83 188 callgsubr
            48 -33 callgsubr
            82 hlineto
            37 callsubr
            -41 vlineto
            -44 -19 -36 -34 -25 vhcurveto
            -200 -149 rlineto
            -39 -28 -24 -38 -54 vvcurveto
            endchar
          </CharString>
          <CharString index="209">
            -92 callsubr
            76 -100 callsubr
            -146 vlineto
            -57 25 -38 36 -19 vhcurveto
            -4 vlineto
            -43 -13 -27 -42 -68 vvcurveto
            return
          </CharString>
          <CharString index="210">
            -100 callsubr
            -272 vlineto
            return
          </CharString>
          <CharString index="211">
            hlineto
            12 callsubr
            return
          </CharString>
          <CharString index="212">
            rlineto
            -36 callsubr
            -2 -3 vvcurveto
            -2 1 -2 1 -2 vhcurveto
            6 -9 rlineto
            -3 2 2 -1 3 335 callgsubr
            3 hvcurveto
            return
          </CharString>
          <CharString index="213">
            25 -45 callsubr
            return
          </CharString>
          <CharString index="214">
            629 rmoveto
            6 5 0 8 -7 hhcurveto
            -17 hlineto
            -7 -4 -3 -8 -6 hvcurveto
            -457 -620 rlineto
            -8 -6 3 -4 6 hhcurveto
            16 hlineto
            8 4 3 8 6 hvcurveto
            return
          </CharString>
          <CharString index="215">
            hvcurveto
            6 -94 callsubr
            -6 vlineto
            return
          </CharString>
          <CharString index="216">
            -81 -43 -32 -73 hvcurveto
            4 callgsubr
            return
          </CharString>
          <CharString index="217">
            rmoveto
            -99 callgsubr
            209 -104 callsubr
            -188 4 hlineto
            19 16 14 41 29 vhcurveto
            79 56 rlineto
            37 26 17 19 51 vvcurveto
            7 vlineto
            58 -35 32 -73 vhcurveto
            -5 hlineto
            -75 -33 -33 -60 hvcurveto
            -9 vlineto
            -85 callsubr
            8 vlineto
            43 19 23 59 vhcurveto
            5 hlineto
            59 19 -22 -41 hvcurveto
            -5 vlineto
            -35 -8 -17 -35 -24 vhcurveto
            -77 -54 rlineto
            -47 -33 -23 -16 -39 vvcurveto
            return
          </CharString>
          <CharString index="218">
            rmoveto
            -77 -27 39 68 68 27 39 77 77 27 -39 -68 -68 -27 -39 -77 hvcurveto
            218 242 -92 callsubr
            return
          </CharString>
          <CharString index="219">
            -94 63 -36 72 vhcurveto
            return
          </CharString>
          <CharString index="220">
            rmoveto
            -301 vlineto
            -85 callsubr
            325 15 callgsubr
            -8 -4 -3 -2 -4 hvcurveto
            -60 -32 rlineto
            -9 -5 -2 -4 -10 vvcurveto
            -6 vlineto
            -9 6 -3 10 7 vhcurveto
            endchar
          </CharString>
          <CharString index="221">
            369 -48 callsubr
            return
          </CharString>
          <CharString index="222">
            80 43 22 51 vhcurveto
            return
          </CharString>
          <CharString index="223">
            vlineto
            73 -43 31 -81 vhcurveto
            -81 hlineto
            -67 -27 15 58 58 27 15 67 hvcurveto
            159 hlineto
            9 7 8 10 hvcurveto
            117 215 callsubr
          </CharString>
          <CharString index="224">
            168 callsubr
            -2 293 callgsubr
            return
          </CharString>
          <CharString index="225">
            -266 rlineto
            -6 4 3 -3 7 hhcurveto
            204 callsubr
            3 4 2 -1 2 -1 2 hvcurveto
            return
          </CharString>
          <CharString index="226">
            -46 callgsubr
            236 -48 callsubr
            return
          </CharString>
          <CharString index="227">
            -134 vlineto
            3 callsubr
            return
          </CharString>
          <CharString index="228">
            rmoveto
            -13 -3 2 11 -7 hvcurveto
            -150 222 171 callsubr
            return
          </CharString>
          <CharString index="229">
            -127 -32 callsubr
            return
          </CharString>
          <CharString index="230">
            284 14 callgsubr
            return
          </CharString>
          <CharString index="231">
            94 callgsubr
            -124 25 102 callsubr
            -74 vlineto
            -83 55 -55 81 vhcurveto
            return
          </CharString>
          <CharString index="232">
            15 -94 callsubr
            -14 -19 callgsubr
            -90 -55 callsubr
            60 -48 callsubr
            150 -20 callsubr
            return
          </CharString>
          <CharString index="233">
            hlineto
            -81 -43 -38 -78 250 callsubr
            hvcurveto
            -4 vlineto
            -44 -19 -24 -39 -59 vvcurveto
            return
          </CharString>
          <CharString index="234">
            -88 callgsubr
            3 hvcurveto
            61 174 rlineto
            280 hlineto
            return
          </CharString>
          <CharString index="235">
            -75 callsubr
            182 return
          </CharString>
          <CharString index="236">
            hlineto
            178 callsubr
            return
          </CharString>
          <CharString index="237">
            -49 callsubr
            272 -95 callgsubr
            return
          </CharString>
          <CharString index="238">
            -100 callsubr
            -243 -64 callsubr
            return
          </CharString>
          <CharString index="239">
            -68 hvcurveto
            -121 vlineto
            -68 -37 return
          </CharString>
          <CharString index="240">
            95 callsubr
            126 76 vlineto
            -104 callgsubr
            -76 471 328 callsubr
            -29 hlineto
            -10 -5 -4 -7 -4 hvcurveto
            -278 -461 rlineto
            -4 -6 -2 -3 -7 vvcurveto
            -87 callgsubr
            301 254 callgsubr
            -8 621 rmoveto
            -458 -276 vlineto
            endchar
          </CharString>
          <CharString index="241">
            rmoveto
            4 5 4 5 5 vvcurveto
            3 -1 1 -2 2 vhcurveto
            -5 4 rlineto
            2 -3 -1 1 -4 hhcurveto
            -4 -3 -5 -4 -4 hvcurveto
            return
          </CharString>
          <CharString index="242">
            vlineto
            63 29 33 65 vhcurveto
            return
          </CharString>
          <CharString index="243">
            292 callsubr
            -339 281 callsubr
            -96 hlineto
            13 callgsubr
            110 24 vlineto
            75 50 35 91 hvcurveto
            12 235 callsubr
            vlineto
            return
          </CharString>
          <CharString index="244">
            145 vlineto
            77 -43 42 -71 9 vhcurveto
            -7 1 -1 3 4 vvcurveto
            140 vlineto
            5 2 3 7 vhcurveto
            193 -107 callsubr
            endchar
          </CharString>
          <CharString index="245">
            59 30 28 60 callsubr
            -21 -16 -46 hhcurveto
            return
          </CharString>
          <CharString index="246">
            -46 130 callsubr
            return
          </CharString>
          <CharString index="247">
            vlineto
            96 callgsubr
            return
          </CharString>
          <CharString index="248">
            -26 16 vhcurveto
            4 return
          </CharString>
          <CharString index="249">
            -66 -83 rlineto
            -17 -14 6 -27 32 hhcurveto
            41 26 17 167 callgsubr
            7 hlineto
            -84 callsubr
            492 -45 callsubr
            return
          </CharString>
          <CharString index="250">
            251 rmoveto
            25 callgsubr
            return
          </CharString>
          <CharString index="251">
            266 callsubr
            171 149 callsubr
            return
          </CharString>
          <CharString index="252">
            38 callgsubr
            16 hlineto
            9 6 330 callsubr
            return
          </CharString>
          <CharString index="253">
            37 -38 -68 hvcurveto
            return
          </CharString>
          <CharString index="254">
            -62 callgsubr
            316 -22 callgsubr
            199 callsubr
            return
          </CharString>
          <CharString index="255">
            hhcurveto
            -271 411 -43 callsubr
            return
          </CharString>
          <CharString index="256">
            -20 callsubr
            127 -95 callgsubr
            return
          </CharString>
          <CharString index="257">
            58 -55 86 vhcurveto
            return
          </CharString>
          <CharString index="258">
            -99 callsubr
            -214 -64 callsubr
            -189 hlineto
            return
          </CharString>
          <CharString index="259">
            rmoveto
            68 callgsubr
            223 vlineto
            5 -3 1 -2 -3 -2 -2 -4 -1 vhcurveto
            -18 -89 rlineto
            -5 -24 -3 -14 -17 vvcurveto
            return
          </CharString>
          <CharString index="260">
            hlineto
            7 3 199 callgsubr
            return
          </CharString>
          <CharString index="261">
            61 90 9 rmoveto
            -98 callgsubr
            246 hlineto
            53 callgsubr
            -246 -85 callgsubr
            39 -606 209 callsubr
            571 -95 callgsubr
            215 7 callgsubr
            -369 -19 callgsubr
            return
          </CharString>
          <CharString index="262">
            hlineto
            44 35 -21 -58 hvcurveto
            return
          </CharString>
          <CharString index="263">
            177 callsubr
            -36 -36 -30 -10 -48 hhcurveto
            return
          </CharString>
          <CharString index="264">
            vvcurveto
            -123 vlineto
            3 callsubr
            -10 callsubr
            -87 callsubr
            hvcurveto
            return
          </CharString>
          <CharString index="265">
            223 callsubr
            -55 18 -34 47 -17 vhcurveto
            -4 vlineto
            return
          </CharString>
          <CharString index="266">
            vhcurveto
            -94 -11 callsubr
            return
          </CharString>
          <CharString index="267">
            -71 callgsubr
            -224 hlineto
            183 callgsubr
            return
          </CharString>
          <CharString index="268">
            -20 6 -27 8 -24 return
          </CharString>
          <CharString index="269">
            8 -24 vhcurveto
            -77 callgsubr
            return
          </CharString>
          <CharString index="270">
            -130 109 hmoveto
            7 5 2 7 2 hvcurveto
            221 602 rlineto
            2 5 1 3 6 vvcurveto
            10 277 callgsubr
            290 hlineto
            -221 -601 rlineto
            -7 -3 1 -7 8 hhcurveto
            endchar
          </CharString>
          <CharString index="271">
            -85 callsubr
            111 292 callgsubr
            return
          </CharString>
          <CharString index="272">
            rmoveto
            221 callgsubr
            -354 281 callsubr
            -136 hlineto
            13 callgsubr
            return
          </CharString>
          <CharString index="273">
            hhcurveto
            -96 callgsubr
            38 25 66 67 37 -28 -78 vhcurveto
            return
          </CharString>
          <CharString index="274">
            hhcurveto
            220 callsubr
            return
          </CharString>
          <CharString index="275">
            rrcurveto
            -7 3 325 callgsubr
            13 hlineto
            4 3 2 4 4 return
          </CharString>
          <CharString index="276">
            rmoveto
            -35 -17 20 37 hvcurveto
            20 vlineto
            36 17 20 35 vhcurveto
            10 hlineto
            36 17 -20 -36 hvcurveto
            -20 vlineto
            -37 -17 -20 -36 vhcurveto
            -23 vmoveto
            49 29 29 50 hvcurveto
            22 vlineto
            50 -29 28 -49 vhcurveto
            -10 hlineto
            -49 -27 -28 -50 hvcurveto
            -22 vlineto
            -50 27 -29 49 vhcurveto
            endchar
          </CharString>
          <CharString index="277">
            59 callgsubr
            -83 vlineto
            return
          </CharString>
          <CharString index="278">
            rlineto
            82 callgsubr
            -13 43 callgsubr
            return
          </CharString>
          <CharString index="279">
            vlineto
            198 callsubr
            return
          </CharString>
          <CharString index="280">
            vhcurveto
            146 -3 rlineto
            140 callgsubr
            -146 -5 4 174 rlineto
            -93 callgsubr
            4 -174 -146 5 rlineto
            246 callgsubr
            return
          </CharString>
          <CharString index="281">
            610 rmoveto
            -601 vlineto
            282 callsubr
            -12 hlineto
            -8 -4 -3 -2 -4 hvcurveto
            -135 -75 rlineto
            -9 -5 -2 -4 -10 vvcurveto
            -6 vlineto
            -9 6 -3 10 7 vhcurveto
            endchar
          </CharString>
          <CharString index="282">
            -52 vlineto
            -85 callsubr
            51 133 callgsubr
            return
          </CharString>
          <CharString index="283">
            hlineto
            -59 callgsubr
            return
          </CharString>
          <CharString index="284">
            rrcurveto
            63 callgsubr
            return
          </CharString>
          <CharString index="285">
            -106 callsubr
            84 223 callgsubr
            3 callsubr
            return
          </CharString>
          <CharString index="286">
            -104 callgsubr
            -142 -23 callsubr
            return
          </CharString>
          <CharString index="287">
            rmoveto
            -49 -37 -17 -32 -14 hvcurveto
            -4 return
          </CharString>
          <CharString index="288">
            hlineto
            -49 -37 -17 -32 -14 hvcurveto
            -4 return
          </CharString>
          <CharString index="289">
            -67 -35 31 68 hvcurveto
            return
          </CharString>
          <CharString index="290">
            -99 callsubr
            -200 -4 vlineto
            29 -20 -37 11 -43 148 callgsubr
            -83 vlineto
            return
          </CharString>
          <CharString index="291">
            -55 callsubr
            39 -94 callsubr
            -40 -32 callsubr
            return
          </CharString>
          <CharString index="292">
            83 hvcurveto
            48 -94 callsubr
            -47 vlineto
            -68 return
          </CharString>
          <CharString index="293">
            -15 -14 6 -20 24 hhcurveto
            9 hlineto
            41 14 -9 -27 hvcurveto
            -2 vlineto
            return
          </CharString>
          <CharString index="294">
            37 vvcurveto
            43 18 28 43 vhcurveto
            188 -100 callsubr
            return
          </CharString>
          <CharString index="295">
            302 -92 callsubr
            return
          </CharString>
          <CharString index="296">
            376 257 callgsubr
            return
          </CharString>
          <CharString index="297">
            rmoveto
            16 callsubr
            return
          </CharString>
          <CharString index="298">
            rlineto
            -3 -3 -1 return
          </CharString>
          <CharString index="299">
            hvcurveto
            134 vlineto
            return
          </CharString>
          <CharString index="300">
            -83 51 -43 81 vhcurveto
            return
          </CharString>
          <CharString index="301">
            -106 callsubr
            121 156 callgsubr
            return
          </CharString>
          <CharString index="302">
            hvcurveto
            12 -45 callsubr
            return
          </CharString>
          <CharString index="303">
            7 -2 263 callsubr
            return
          </CharString>
          <CharString index="304">
            rmoveto
            6 -2 4 -7 vhcurveto
            -17 hlineto
            -7 -2 -4 -6 hvcurveto
            7 -182 rlineto
            -7 4 -3 5 vhcurveto
            3 hlineto
            5 return
          </CharString>
          <CharString index="305">
            -75 -30 -23 -64 vhcurveto
            return
          </CharString>
          <CharString index="306">
            -222 -192 vlineto
            -86 callsubr
            191 return
          </CharString>
          <CharString index="307">
            14 callgsubr
            223 return
          </CharString>
          <CharString index="308">
            -64 hvcurveto
            8 callsubr
            return
          </CharString>
          <CharString index="309">
            hlineto
            -63 -31 28 61 hvcurveto
            return
          </CharString>
          <CharString index="310">
            -92 callsubr
            89 131 callsubr
            -224 hlineto
            127 callgsubr
            return
          </CharString>
          <CharString index="311">
            12 hlineto
            5 3 return
          </CharString>
          <CharString index="312">
            rlineto
            18 18 26 9 33 242 callsubr
            return
          </CharString>
          <CharString index="313">
            238 callgsubr
            4 124 callgsubr
            return
          </CharString>
          <CharString index="314">
            102 95 callsubr
            return
          </CharString>
          <CharString index="315">
            -95 callgsubr
            119 -107 callsubr
            endchar
          </CharString>
          <CharString index="316">
            rmoveto
            -6 callgsubr
            return
          </CharString>
          <CharString index="317">
            -7 -1 623 15 callsubr
            return
          </CharString>
          <CharString index="318">
            -104 322 629 rmoveto
            8 3 -2 6 -7 286 callsubr
            -3 -3 -8 -3 hvcurveto
            -218 -620 rlineto
            -8 -3 5 -4 6 hhcurveto
            13 hlineto
            6 4 3 8 3 hvcurveto
            endchar
          </CharString>
          <CharString index="319">
            hlineto
            -81 -43 -32 -73 hvcurveto
            -6 vlineto
            -44 19 -30 31 -15 vhcurveto
            -4 vlineto
            -33 334 callgsubr
            return
          </CharString>
          <CharString index="320">
            -81 -49 -37 -83 return
          </CharString>
          <CharString index="321">
            rmoveto
            138 callsubr
            return
          </CharString>
          <CharString index="322">
            -95 callgsubr
            105 -107 callsubr
            endchar
          </CharString>
          <CharString index="323">
            -27 -27 -23 -18 -46 130 callgsubr
            return
          </CharString>
          <CharString index="324">
            hlineto
            39 callgsubr
            235 callgsubr
            return
          </CharString>
          <CharString index="325">
            rrcurveto
            4 vlineto
            47 17 23 44 55 vvcurveto
            return
          </CharString>
          <CharString index="326">
            8 rmoveto
            -99 callgsubr
            return
          </CharString>
          <CharString index="327">
            -54 -46 192 callgsubr
            return
          </CharString>
          <CharString index="328">
            hlineto
            -5 -3 -3 -4 return
          </CharString>
          <CharString index="329">
            274 callsubr
            102 -107 callsubr
            endchar
          </CharString>
          <CharString index="330">
            38 callsubr
            -34 vlineto
            return
          </CharString>
          <CharString index="331">
            hlineto
            -67 -27 26 62 return
          </CharString>
          <CharString index="332">
            -100 callsubr
            -167 134 callgsubr
            return
          </CharString>
          <CharString index="333">
            -92 callsubr
            337 277 callsubr
            return
          </CharString>
          <CharString index="334">
            -64 callsubr
            -127 237 callsubr
            return
          </CharString>
          <CharString index="335">
            hlineto
            162 callgsubr
            return
          </CharString>
          <CharString index="336">
            hlineto
            51 38 27 36 36 hvcurveto
            3 3 3 3 4 vvcurveto
            2 -1 2 -2 2 vhcurveto
            return
          </CharString>
          <CharString index="337">
            36 hlineto
            25 19 5 0 hvcurveto
            return
          </CharString>
          <CharString index="338">
            623 121 callsubr
            return
          </CharString>
          <CharString index="339">
            rmoveto
            -85 callsubr
            return
          </CharString>
          <CharString index="340">
            -103 -26 callsubr
            return
          </CharString>
          <CharString index="341">
            hlineto
            245 callsubr
            return
          </CharString>
          <CharString index="342">
            vlineto
            42 -10 32 141 callsubr
            return
          </CharString>
          <CharString index="343">
            hlineto
            -84 callsubr
            625 return
          </CharString>
          <CharString index="344">
            hlineto
            -5 callsubr
            return
          </CharString>
          <CharString index="345">
            vlineto
            115 callsubr
            return
          </CharString>
          <CharString index="346">
            67 27 -19 -58 hvcurveto
            return
          </CharString>
          <CharString index="347">
            -43 callsubr
            48 return
          </CharString>
          <CharString index="348">
            hlineto
            -97 callsubr
            464 17 165 callsubr
            return
          </CharString>
          <CharString index="349">
            hhcurveto
            58 -104 callsubr
            -58 hlineto
            return
          </CharString>
          <CharString index="350">
            -84 callgsubr
            -6 vlineto
            return
          </CharString>
          <CharString index="351">
            -81 rmoveto
            25 vlineto
            7 -3 2 -5 vhcurveto
            -20 hlineto
            -73 callgsubr
            return
          </CharString>
          <CharString index="352">
            41 callsubr
            -11 172 callsubr
            return
          </CharString>
          <CharString index="353">
            -71 callgsubr
            -189 hlineto
            214 callgsubr
            return
          </CharString>
          <CharString index="354">
            vlineto
            -5 callgsubr
            return
          </CharString>
          <CharString index="355">
            rmoveto
            -65 -47 35 69 hvcurveto
            246 vlineto
            69 47 35 65 vhcurveto
            72 92 callgsubr
            return
          </CharString>
          <CharString index="356">
            -378 263 callgsubr
            return
          </CharString>
          <CharString index="357">
            -55 22 -34 41 -14 return
          </CharString>
          <CharString index="358">
            -486 46 callsubr
            235 -248 rlineto
            -29 -16 -31 -16 -43 hhcurveto
            return
          </CharString>
          <CharString index="359">
            21 callsubr
            264 callgsubr
            return
          </CharString>
          <CharString index="360">
            hvcurveto
            5 -3 -2 2 -3 hhcurveto
            -3 -2 -1 -1 -2 hvcurveto
            -8 -4 rlineto
            -4 -2 -1 -3 -2 vvcurveto
            -1 1 -4 2 -4 vhcurveto
            return
          </CharString>
          <CharString index="361">
            vlineto
            278 callgsubr
            324 callgsubr
            return
          </CharString>
          <CharString index="362">
            291 callgsubr
            -63 -29 -26 -26 -14 hvcurveto
            -4 return
          </CharString>
          <CharString index="363">
            279 callgsubr
            -81 -43 return
          </CharString>
          <CharString index="364">
            -95 callgsubr
            183 hlineto
            return
          </CharString>
          <CharString index="365">
            hlineto
            7 336 callgsubr
            return
          </CharString>
          <CharString index="366">
            155 callsubr
            -180 vlineto
            173 189 callgsubr
            return
          </CharString>
          <CharString index="367">
            -61 callsubr
            65 269 callsubr
            -65 16 callgsubr
            return
          </CharString>
          <CharString index="368">
            388 132 rmoveto
            -69 -47 -35 -65 vhcurveto
            -72 49 callsubr
            return
          </CharString>
          <CharString index="369">
            -100 callsubr
            -162 140 callsubr
            return
          </CharString>
          <CharString index="370">
            -36 callgsubr
            hhcurveto
            return
          </CharString>
          <CharString index="371">
            158 callsubr
            -45 -15 -20 -34 -59 vvcurveto
            return
          </CharString>
          <CharString index="372">
            -95 callgsubr
            215 301 callgsubr
          </CharString>
          <CharString index="373">
            224 callsubr
            63 29 25 65 hvcurveto
            return
          </CharString>
          <CharString index="374" raw="1">
            fb7b0684 0b  
          </CharString>
          <CharString index="375">
            hlineto
            -67 -27 21 58 hvcurveto
            28 vlineto
            55 24 22 70 vhcurveto
            return
          </CharString>
          <CharString index="376">
            -33 callgsubr
            105 hlineto
            37 callsubr
            return
          </CharString>
          <CharString index="377">
            26 -14 -29 26 -63 hhcurveto
            258 callgsubr
            return
          </CharString>
          <CharString index="378">
            202 callgsubr
            -51 vlineto
            return
          </CharString>
          <CharString index="379">
            vhcurveto
            -16 hlineto
            -101 callsubr
            return
          </CharString>
          <CharString index="380">
            5 hhcurveto
            8 hlineto
            5 return
          </CharString>
          <CharString index="381">
            -48 callsubr
            150 -20 callsubr
            120 -95 callgsubr
            return
          </CharString>
          <CharString index="382">
            46 158 rlineto
            10 -81 callsubr
            -8 hhcurveto
            -8 hlineto
            -8 -3 -4 -7 -2 hvcurveto
            -47 -162 rlineto
            return
          </CharString>
          <CharString index="383">
            -50 callsubr
            -56 hlineto
            -101 callsubr
            return
          </CharString>
          <CharString index="384">
            -100 callsubr
            -102 227 callsubr
            return
          </CharString>
          <CharString index="385">
            -71 callgsubr
            -138 hlineto
            -81 -43 -38 -78 return
          </CharString>
          <CharString index="386">
            -85 callgsubr
            -42 vlineto
            -104 return
          </CharString>
          <CharString index="387">
            vhcurveto
            308 hlineto
            7 2 return
          </CharString>
          <CharString index="388">
            vlineto
            25 callgsubr
            return
          </CharString>
          <CharString index="389">
            -85 callsubr
            625 -45 callsubr
            return
          </CharString>
          <CharString index="390" raw="1">
            f903157e 888d9684 1ffb2af7 7205dd1d
            0b   
          </CharString>
          <CharString index="391">
            99 callgsubr
            24 -107 callsubr
            return
          </CharString>
          <CharString index="392">
            99 callgsubr
            39 -107 callsubr
            return
          </CharString>
          <CharString index="393">
            hhcurveto
            -14 hlineto
            -7 return
          </CharString>
          <CharString index="394">
            81 53 50 83 hvcurveto
            72 vlineto
            60 -28 41 -46 18 vhcurveto
            46 18 28 41 60 vvcurveto
            return
          </CharString>
          <CharString index="395">
            hlineto
            -40 -45 rlineto
            186 callsubr
            return
          </CharString>
          <CharString index="396">
            -81 vhcurveto
            219 callgsubr
            return
          </CharString>
          <CharString index="397">
            -100 callsubr
            -598 return
          </CharString>
          <CharString index="398">
            112 95 callsubr
            return
          </CharString>
          <CharString index="399">
            rmoveto
            -99 callsubr
            return
          </CharString>
          <CharString index="400">
            5 callsubr
            -137 hlineto
            return
          </CharString>
          <CharString index="401">
            258 -79 callsubr
            return
          </CharString>
          <CharString index="402">
            rlineto
            7 3 -66 callgsubr
            vvcurveto
            20 vlineto
            -86 callgsubr
            3 vhcurveto
            -352 return
          </CharString>
          <CharString index="403">
            rlineto
            -7 -3 -80 callgsubr
            vvcurveto
            -20 vlineto
            -93 callsubr
            -3 vhcurveto
            352 return
          </CharString>
          <CharString index="404">
            -269 rmoveto
            318 callsubr
            return
          </CharString>
          <CharString index="405">
            -5 5 -4 -1 -3 -4 rlinecurve
            -10 -10 -4 -3 -1 -4 5 -5 rlinecurve
            return
          </CharString>
          <CharString index="406">
            -5 -5 1 -4 4 -3 rlinecurve
            10 -10 3 -4 4 -1 5 5 rlinecurve
            return
          </CharString>
          <CharString index="407">
            173 callgsubr
            499 vlineto
            5 -3 3 -5 vhcurveto
            endchar
          </CharString>
          <CharString index="408">
            hlineto
            -101 callsubr
            endchar
          </CharString>
          <CharString index="409">
            hvcurveto
            -275 -620 rlineto
            -9 -4 3 -3 6 hhcurveto
            10 hlineto
            6 return
          </CharString>
          <CharString index="410">
            306 -13 callsubr
            return
          </CharString>
          <CharString index="411">
            512 -92 callsubr
            return
          </CharString>
          <CharString index="412">
            vhcurveto
            -46 -91 callsubr
            return
          </CharString>
          <CharString index="413">
            -198 hlineto
            -85 callsubr
            return
          </CharString>
          <CharString index="414">
            -92 callsubr
            318 return
          </CharString>
          <CharString index="415" raw="1">
            1ef72206 2a0a0b  
          </CharString>
          <CharString index="416">
            -123 vlineto
            281 callgsubr
            return
          </CharString>
          <CharString index="417">
            -4 hlineto
            -101 callsubr
            return
          </CharString>
          <CharString index="418" raw="1">
            921ef72e 06928d0b  
          </CharString>
          <CharString index="419">
            rmoveto
            -84 callgsubr
            return
          </CharString>
          <CharString index="420">
            -83 53 -49 81 vhcurveto
            return
          </CharString>
          <CharString index="421">
            321 callgsubr
            -64 callsubr
            return
          </CharString>
          <CharString index="422">
            287 245 callgsubr
            return
          </CharString>
          <CharString index="423">
            hlineto
            6 3 332 callgsubr
            return
          </CharString>
          <CharString index="424">
            9 232 callsubr
            return
          </CharString>
          <CharString index="425">
            183 callgsubr
            260 -95 callgsubr
            return
          </CharString>
          <CharString index="426">
            -100 callsubr
            -99 -64 callsubr
            return
          </CharString>
          <CharString index="427">
            29 -20 -37 11 -43 hhcurveto
            -50 hlineto
            return
          </CharString>
          <CharString index="428">
            353 -100 callsubr
            return
          </CharString>
          <CharString index="429">
            rlineto
            46 40 24 28 0 vvcurveto
            4 return
          </CharString>
          <CharString index="430">
            213 callsubr
            hvcurveto
            return
          </CharString>
          <CharString index="431">
            -625 rlineto
            -7 return
          </CharString>
          <CharString index="432">
            hhcurveto
            3 2 1 return
          </CharString>
          <CharString index="433">
            hlineto
            -98 callgsubr
            endchar
          </CharString>
          <CharString index="434">
            -55 callsubr
            endchar
          </CharString>
          <CharString index="435">
            hlineto
            -56 callgsubr
            return
          </CharString>
          <CharString index="436">
            vlineto
            5 3 3 6 vhcurveto
            return
          </CharString>
          <CharString index="437">
            5 4 5 hvcurveto
            return
          </CharString>
          <CharString index="438">
            vvcurveto
            -44 196 callgsubr
            117 hlineto
            return
          </CharString>
          <CharString index="439">
            -215 vlineto
            182 callgsubr
            return
          </CharString>
          <CharString index="440" raw="1">
            a75e0a0b   
          </CharString>
          <CharString index="441">
            65 47 -35 -69 hvcurveto
            return
          </CharString>
          <CharString index="442" raw="1">
            fb750686 880b  
          </CharString>
          <CharString index="443" raw="1">
            fb0d0684 0b  
          </CharString>
          <CharString index="444">
            -269 rmoveto
            31 vlineto
            83 -53 51 -81 vhcurveto
            return
          </CharString>
          <CharString index="445" raw="1">
            921ef7a6 270a0b  
          </CharString>
          <CharString index="446">
            vhcurveto
            -61 hlineto
            -67 return
          </CharString>
        <CharString name=".notdef">
          253 180 hmoveto
          390 701 -390 hlineto
          54 -50 rmoveto
          282 -601 -282 hlineto
          endchar
        </CharString>
        <CharString name="A">
          -54 callgsubr
          endchar
        </CharString>
        <CharString name="AE">
          274 376 607 rmoveto
          4 -394 -228 hlineto
          -128 -213 rmoveto
          -88 callgsubr
          4 hvcurveto
          99 174 rlineto
          245 -174 hlineto
          -98 callgsubr
          304 hlineto
          -55 callgsubr
          -322 hlineto
          -6 -4 -2 -7 -4 hvcurveto
          -355 -625 rlineto
          -6 -3 2 -3 5 hhcurveto
          endchar
        </CharString>
        <CharString name="Aacute">
          -54 callgsubr
          307 836 -67 callsubr
        </CharString>
        <CharString name="Abreve">
          -54 callgsubr
          130 827 22 callsubr
        </CharString>
        <CharString name="Acircumflex">
          -54 callgsubr
          250 827 -41 callgsubr
        </CharString>
        <CharString name="Adieresis">
          -54 callgsubr
          289 716 rmoveto
          -59 callsubr
        </CharString>
        <CharString name="Agrave">
          -54 callgsubr
          161 827 -7 callsubr
        </CharString>
        <CharString name="Amacron">
          -54 callgsubr
          328 757 97 callsubr
        </CharString>
        <CharString name="Aogonek">
          29 134 213 rmoveto
          127 392 rlineto
          4 hlineto
          127 -392 rlineto
          -107 421 rmoveto
          196 callsubr
          -24 hlineto
          -74 callgsubr
          -2 hvcurveto
          -210 324 callsubr
          -2 325 callgsubr
          14 hlineto
          127 callsubr
          58 -165 -67 -84 rlineto
          -17 -14 6 -18 32 hhcurveto
          41 26 8 167 callgsubr
          14 231 callgsubr
          endchar
        </CharString>
        <CharString name="Aring">
          -54 callgsubr
          219 715 169 callsubr
        </CharString>
        <CharString name="Atilde">
          -54 callgsubr
          238 765 rmoveto
          -16 callgsubr
          -39 vlineto
          201 callgsubr
          endchar
        </CharString>
        <CharString name="B">
          47 90 9 rmoveto
          -98 callgsubr
          237 89 callsubr
          73 vlineto
          72 -49 45 -45 2 vhcurveto
          47 14 41 33 72 vvcurveto
          66 50 callsubr
          -231 -85 callgsubr
          39 -295 209 callsubr
          260 -95 callgsubr
          200 hlineto
          37 callsubr
          -64 vlineto
          -68 -41 -38 -67 vhcurveto
          -196 -311 209 callsubr
          267 -95 callgsubr
          196 hlineto
          77 146 callsubr
          -71 327 callgsubr
        </CharString>
        <CharString name="C">
          53 callsubr
          endchar
        </CharString>
        <CharString name="CR">
          -217 endchar
        </CharString>
        <CharString name="Cacute">
          53 callsubr
          135 836 -67 callsubr
        </CharString>
        <CharString name="Ccaron">
          53 callsubr
          60 707 -63 callgsubr
          endchar
        </CharString>
        <CharString name="Ccedilla">
          46 470 448 rmoveto
          178 callgsubr
          70 288 callsubr
          -25 -15 -9 84 callsubr
          46 50 rlineto
          26 hlineto
          193 callgsubr
          -130 150 callgsubr
          130 7 callgsubr
          -49 vlineto
          -98 callgsubr
          endchar
        </CharString>
        <CharString name="D">
          154 callsubr
          endchar
        </CharString>
        <CharString name="Dcaron">
          154 callsubr
          -75 679 -63 callgsubr
          endchar
        </CharString>
        <CharString name="Dcroat">
          3 344 228 callgsubr
          -246 -85 callgsubr
          -236 255 callgsubr
          -345 vlineto
          -98 callgsubr
          31 28 209 callsubr
          318 -95 callgsubr
          166 -104 callsubr
          -166 hlineto
          -6 callgsubr
          209 265 callsubr
        </CharString>
        <CharString name="E">
          -16 402 hmoveto
          -55 callgsubr
          -304 -85 callgsubr
          -625 vlineto
          -98 callgsubr
          endchar
        </CharString>
        <CharString name="Eacute">
          -16 402 hmoveto
          -55 callgsubr
          -304 -85 callgsubr
          -625 vlineto
          -98 callgsubr
          221 836 -67 callsubr
        </CharString>
        <CharString name="Ecaron">
          -16 402 hmoveto
          -55 callgsubr
          -304 -85 callgsubr
          -625 vlineto
          -98 callgsubr
          147 707 -63 callgsubr
          endchar
        </CharString>
        <CharString name="Ecircumflex">
          -16 402 hmoveto
          -55 callgsubr
          -304 -85 callgsubr
          -625 vlineto
          -98 callgsubr
          176 827 -41 callgsubr
        </CharString>
        <CharString name="Edieresis">
          -16 402 hmoveto
          -55 callgsubr
          -304 -85 callgsubr
          -625 vlineto
          -98 callgsubr
          215 716 rmoveto
          -59 callsubr
        </CharString>
        <CharString name="Edotaccent">
          3 402 hmoveto
          -55 callgsubr
          -304 -85 callgsubr
          -625 vlineto
          -98 callgsubr
          137 722 rmoveto
          61 callgsubr
        </CharString>
        <CharString name="Egrave">
          -16 402 hmoveto
          -55 callgsubr
          -304 -85 callgsubr
          -625 vlineto
          -98 callgsubr
          105 827 -7 callsubr
        </CharString>
        <CharString name="Emacron">
          -16 402 hmoveto
          -55 callgsubr
          -304 -85 callgsubr
          -625 vlineto
          -98 callgsubr
          254 757 97 callsubr
        </CharString>
        <CharString name="Eogonek">
          -16 402 615 -13 callsubr
          -304 -85 callgsubr
          -625 vlineto
          -98 callgsubr
          221 hlineto
          -52 -66 rlineto
          -17 -14 6 -18 32 hhcurveto
          41 26 8 167 callgsubr
          54 hlineto
          131 callgsubr
          hlineto
          -6 callgsubr
          270 -95 callgsubr
          247 -104 callsubr
          -247 hlineto
          -6 callgsubr
          257 -95 callgsubr
          endchar
        </CharString>
        <CharString name="Eth">
          3 344 228 callgsubr
          -246 -85 callgsubr
          -286 255 callgsubr
          -295 vlineto
          -98 callgsubr
          31 28 209 callsubr
          268 -95 callgsubr
          166 -104 callsubr
          -166 hlineto
          -6 callgsubr
          259 265 callsubr
        </CharString>
        <CharString name="Euro">
          20 313 hmoveto
          81 53 50 83 hvcurveto
          29 -94 callsubr
          -28 16 callgsubr
          -65 -49 callsubr
          113 176 vlineto
          -104 callgsubr
          -176 92 176 -104 callsubr
          -176 114 210 callgsubr
          -115 -65 207 callgsubr
          65 -92 -65 -91 callsubr
          65 -114 hlineto
          3 callsubr
          endchar
        </CharString>
        <CharString name="F">
          -35 291 callsubr
          288 -95 callgsubr
          247 -104 callsubr
          -247 hlineto
          -6 callgsubr
          266 vlineto
          5 2 3 7 vhcurveto
          274 -104 callsubr
          -305 -85 callgsubr
          -625 vlineto
          -98 callgsubr
          endchar
        </CharString>
        <CharString name="G">
          29 callgsubr
          endchar
        </CharString>
        <CharString name="Gbreve">
          29 callgsubr
          -40 827 22 callsubr
        </CharString>
        <CharString name="H">
          71 291 callsubr
          297 -95 callgsubr
          310 -100 callsubr
          -297 vlineto
          282 callsubr
          -14 hlineto
          -74 callgsubr
          hvcurveto
          -284 -64 callsubr
          -310 hlineto
          -6 callgsubr
          284 119 callgsubr
          endchar
        </CharString>
        <CharString name="I">
          -277 125 634 45 callsubr
          endchar
        </CharString>
        <CharString name="Iacute">
          -276 125 634 45 callsubr
          61 827 -67 callsubr
        </CharString>
        <CharString name="Icircumflex">
          -277 125 634 45 callsubr
          9 818 -41 callgsubr
        </CharString>
        <CharString name="Idieresis">
          -277 125 634 45 callsubr
          48 707 rmoveto
          -59 callsubr
        </CharString>
        <CharString name="Idotaccent">
          -277 95 692 232 callsubr
          99 -94 callsubr
          30 -157 45 callsubr
          endchar
        </CharString>
        <CharString name="Igrave">
          -277 125 634 45 callsubr
          -75 818 -7 callsubr
        </CharString>
        <CharString name="Imacron">
          -277 125 634 45 callsubr
          87 748 97 callsubr
        </CharString>
        <CharString name="Iogonek">
          -277 103 643 312 callsubr
          -617 vlineto
          -66 -83 rlineto
          -17 -14 6 -18 32 hhcurveto
          41 26 8 167 callgsubr
          7 236 callsubr
          267 callgsubr
        </CharString>
        <CharString name="J">
          -4 386 643 rmoveto
          -5 -3 -3 -6 172 callgsubr
          -100 -55 callsubr
          79 -94 callsubr
          -80 312 callgsubr
          300 callsubr
        </CharString>
        <CharString name="K">
          117 callgsubr
          endchar
        </CharString>
        <CharString name="L">
          70 callgsubr
          endchar
        </CharString>
        <CharString name="Lacute">
          70 callgsubr
          82 836 -67 callsubr
        </CharString>
        <CharString name="Lcaron">
          70 callgsubr
          255 634 -17 callgsubr
          endchar
        </CharString>
        <CharString name="Lslash">
          3 413 hmoveto
          140 callgsubr
          -284 hlineto
          -6 callgsubr
          380 vlineto
          106 60 305 callgsubr
          -106 -60 rlineto
          184 -94 callsubr
          -201 vlineto
          -75 -43 306 callgsubr
          75 43 rlineto
          -392 vlineto
          -98 callgsubr
          endchar
        </CharString>
        <CharString name="M">
          191 346 177 rmoveto
          -4 hlineto
          -209 462 rlineto
          2 -1 -2 2 -4 hhcurveto
          -28 63 callsubr
          577 4 vlineto
          199 -438 rlineto
          -6 3 3 -2 6 hhcurveto
          19 hlineto
          6 3 2 6 3 hvcurveto
          198 437 rlineto
          4 -576 hlineto
          282 callsubr
          -28 hlineto
          -4 -2 -2 -2 -1 hvcurveto
          endchar
        </CharString>
        <CharString name="N">
          26 callgsubr
          endchar
        </CharString>
        <CharString name="NULL">
          -497 endchar
        </CharString>
        <CharString name="Nacute">
          26 callgsubr
          277 836 -67 callsubr
        </CharString>
        <CharString name="Ncaron">
          81 284 707 -63 callgsubr
          -172 -707 rmoveto
          30 callgsubr
          endchar
        </CharString>
        <CharString name="Ntilde">
          26 callgsubr
          203 765 rmoveto
          -16 callgsubr
          -39 vlineto
          201 callgsubr
          endchar
        </CharString>
        <CharString name="O">
          -30 callgsubr
          endchar
        </CharString>
        <CharString name="OE">
          276 214 28 rmoveto
          92 callsubr
          149 -100 callsubr
          -571 -64 callsubr
          -283 108 rmoveto
          -37 callgsubr
          470 hlineto
          -55 callgsubr
          -470 237 callsubr
          endchar
        </CharString>
        <CharString name="Oacute">
          -30 callgsubr
          6 808 -67 callsubr
        </CharString>
        <CharString name="Ocircumflex">
          -30 callgsubr
          -39 799 -41 callgsubr
        </CharString>
        <CharString name="Odieresis">
          -30 callgsubr
          688 vmoveto
          -59 callsubr
        </CharString>
        <CharString name="Ograve">
          -30 callgsubr
          -118 799 -7 callsubr
        </CharString>
        <CharString name="Ohungarumlaut">
          -30 callgsubr
          64 808 rmoveto
          1 callsubr
          -138 hmoveto
          1 callsubr
          endchar
        </CharString>
        <CharString name="Omacron">
          -30 callgsubr
          39 729 97 callsubr
        </CharString>
        <CharString name="Oslash">
          56 443 137 rmoveto
          -24 callgsubr
          -125 hlineto
          -46 -32 19 35 -15 hvcurveto
          321 446 rlineto
          1 -7 0 -7 -8 vvcurveto
          -333 hmoveto
          -31 callgsubr
          125 hlineto
          46 32 -19 -34 15 hvcurveto
          -321 -446 rlineto
          -1 7 0 7 7 vvcurveto
          384 496 rmoveto
          -5 3 -4 -1 -4 -6 -30 -41 rcurveline
          35 -23 -39 20 -50 hhcurveto
          -125 237 callsubr
          -371 vlineto
          -19 3 -17 5 -16 vhcurveto
          -39 -54 -4 -6 0 -5 4 -3 rlinecurve
          9 -6 5 -3 4 1 4 5 rlinecurve
          31 43 rlineto
          -36 22 40 -20 50 hhcurveto
          125 173 callgsubr
          371 vlineto
          19 -3 18 -5 16 vhcurveto
          38 53 4 5 1 5 -5 4 rlinecurve
          endchar
        </CharString>
        <CharString name="Otilde">
          -30 callgsubr
          -51 737 rmoveto
          -16 callgsubr
          -39 vlineto
          201 callgsubr
          endchar
        </CharString>
        <CharString name="P">
          26 129 276 209 callsubr
          323 -95 callgsubr
          195 hlineto
          67 37 -41 132 callsubr
          -41 -67 vhcurveto
          -212 -276 161 callgsubr
          231 -95 callgsubr
          195 hlineto
          81 53 53 77 callsubr
          53 -81 vhcurveto
          -226 -85 callgsubr
          -625 vlineto
          -98 callgsubr
          endchar
        </CharString>
        <CharString name="Q">
          56 412 -133 rmoveto
          5 3 3 6 -4 hvcurveto
          -77 124 rlineto
          28 callsubr
          90 hlineto
          77 -124 rlineto
          -8 5 4 -1 6 hhcurveto
          -182 161 rmoveto
          42 callsubr
          endchar
        </CharString>
        <CharString name="R">
          33 129 -29 callsubr
          endchar
        </CharString>
        <CharString name="Racute">
          33 129 -29 callsubr
          217 836 -67 callsubr
        </CharString>
        <CharString name="Rcaron">
          33 129 -29 callsubr
          147 707 -63 callgsubr
          endchar
        </CharString>
        <CharString name="S">
          -8 callsubr
          endchar
        </CharString>
        <CharString name="Sacute">
          -8 callsubr
          261 660 -67 callsubr
        </CharString>
        <CharString name="Scaron">
          -8 callsubr
          189 531 -63 callgsubr
          endchar
        </CharString>
        <CharString name="T">
          45 callgsubr
          endchar
        </CharString>
        <CharString name="Tcaron">
          45 callgsubr
          3 707 -63 callgsubr
          endchar
        </CharString>
        <CharString name="Thorn">
          3 147 95 callsubr
          116 -95 callgsubr
          124 173 callgsubr
          105 9 callgsubr
          -124 hlineto
          -6 callgsubr
          116 119 callgsubr
          31 161 209 callsubr
          305 -95 callgsubr
          124 7 callgsubr
          -103 -19 callgsubr
          endchar
        </CharString>
        <CharString name="U">
          -32 callgsubr
          endchar
        </CharString>
        <CharString name="Uacute">
          -32 callgsubr
          -114 193 -67 callsubr
        </CharString>
        <CharString name="Ucircumflex">
          -32 callgsubr
          -158 184 -41 callgsubr
        </CharString>
        <CharString name="Udieresis">
          -32 callgsubr
          -119 73 rmoveto
          -59 callsubr
        </CharString>
        <CharString name="Ugrave">
          -32 callgsubr
          -230 184 -7 callsubr
        </CharString>
        <CharString name="Uhungarumlaut">
          -32 callgsubr
          -59 193 rmoveto
          1 callsubr
          -138 hmoveto
          1 callsubr
          endchar
        </CharString>
        <CharString name="Umacron">
          -32 callgsubr
          -80 114 97 callsubr
        </CharString>
        <CharString name="Uogonek">
          53 443 643 rmoveto
          -5 -3 -3 -6 172 callgsubr
          -112 -55 callsubr
          497 -94 callsubr
          -498 -32 callsubr
          62 hlineto
          -52 -66 rlineto
          -17 -14 6 -18 32 hhcurveto
          41 26 8 167 callgsubr
          21 300 callsubr
        </CharString>
        <CharString name="Uring">
          -32 callgsubr
          -188 72 169 callsubr
        </CharString>
        <CharString name="V">
          -3 259 hmoveto
          -88 callgsubr
          2 hvcurveto
          194 625 rlineto
          7 2 263 callsubr
          -15 hlineto
          -74 callgsubr
          -2 hvcurveto
          -183 -590 rlineto
          -4 hlineto
          -183 590 273 callgsubr
          -15 hlineto
          -74 callgsubr
          2 hvcurveto
          194 324 callsubr
          2 325 callgsubr
          endchar
        </CharString>
        <CharString name="W">
          293 219 hmoveto
          5 3 3 6 2 hvcurveto
          164 590 rlineto
          4 hlineto
          164 -590 rlineto
          -6 2 4 -3 5 hhcurveto
          27 hlineto
          5 3 1 8 2 hvcurveto
          145 625 rlineto
          7 2 263 callsubr
          -15 hlineto
          -5 -4 -1 -8 -2 hvcurveto
          -135 -596 rlineto
          -4 hlineto
          -168 596 rlineto
          7 -2 -3 2 -6 hhcurveto
          -19 hlineto
          -6 -3 -2 -7 -2 hvcurveto
          -167 -596 rlineto
          -4 hlineto
          -135 596 273 callgsubr
          -14 hlineto
          -7 -2 -3 -6 1 hvcurveto
          145 324 callsubr
          2 4 -2 5 hhcurveto
          endchar
        </CharString>
        <CharString name="X">
          -3 426 7 rmoveto
          -5 3 325 callgsubr
          16 hlineto
          6 1 4 5 -3 hvcurveto
          -189 334 178 291 rlineto
          7 4 263 callsubr
          -16 hlineto
          -6 -3 -2 -7 -4 hvcurveto
          -163 -269 rlineto
          -4 hlineto
          -164 269 rlineto
          7 -4 -4 2 -6 hhcurveto
          -14 hlineto
          -5 -3 -4 -5 3 hvcurveto
          179 -292 -190 -333 rlineto
          -5 -3 1 -4 6 hhcurveto
          16 hlineto
          5 3 2 5 3 hvcurveto
          176 310 rlineto
          4 hlineto
          endchar
        </CharString>
        <CharString name="Y">
          68 callsubr
          endchar
        </CharString>
        <CharString name="Yacute">
          68 callsubr
          79 836 -67 callsubr
        </CharString>
        <CharString name="Ydieresis">
          68 callsubr
          70 716 rmoveto
          -59 callsubr
        </CharString>
        <CharString name="Z">
          24 callsubr
          endchar
        </CharString>
        <CharString name="Zacute">
          24 callsubr
          281 811 -67 callsubr
        </CharString>
        <CharString name="Zcaron">
          24 callsubr
          206 682 -63 callgsubr
          endchar
        </CharString>
        <CharString name="Zdotaccent">
          24 callsubr
          200 697 rmoveto
          61 callgsubr
        </CharString>
        <CharString name="a">
          1 -47 callsubr
          endchar
        </CharString>
        <CharString name="aacute">
          1 -47 callsubr
          124 703 -67 callsubr
        </CharString>
        <CharString name="abreve">
          1 -47 callsubr
          -32 694 22 callsubr
        </CharString>
        <CharString name="acircumflex">
          1 -47 callsubr
          81 694 -41 callgsubr
        </CharString>
        <CharString name="acute">
          -236 155 703 -67 callsubr
        </CharString>
        <CharString name="adieresis">
          1 -47 callsubr
          124 583 rmoveto
          -59 callsubr
        </CharString>
        <CharString name="ae">
          309 388 132 233 callgsubr
          26 -48 callsubr
          175 -100 callsubr
          318 -18 84 callgsubr
          -270 hlineto
          -6 callgsubr
          132 vlineto
          69 47 35 65 vhcurveto
          72 7 callgsubr
          -288 -171 rmoveto
          -100 callgsubr
          300 258 callsubr
          154 291 callgsubr
          -55 -46 -20 -49 -23 hvcurveto
          48 -21 -43 21 -56 hhcurveto
          -152 -91 callsubr
          152 7 callgsubr
          -65 -64 callsubr
          -175 237 callsubr
          -28 -32 callsubr
          74 hlineto
          55 46 18 51 23 hvcurveto
          -50 21 43 -19 56 hhcurveto
          205 -104 callsubr
          -205 327 callsubr
        </CharString>
        <CharString name="agrave">
          1 -47 callsubr
          17 694 -7 callsubr
        </CharString>
        <CharString name="amacron">
          1 -47 callsubr
          172 627 rmoveto
          -105 callgsubr
          -204 -11 callsubr
          endchar
        </CharString>
        <CharString name="ampersand">
          95 214 28 rmoveto
          -61 callsubr
          90 vlineto
          64 33 38 61 4 vhcurveto
          196 -225 rlineto
          -49 -9 -35 -28 -57 hhcurveto
          188 -22 rmoveto
          -4 4 4 -2 5 hhcurveto
          19 hlineto
          4 0 4 2 -2 hvcurveto
          -218 252 rlineto
          220 -104 callsubr
          -244 hlineto
          -67 77 rlineto
          -34 37 -9 24 44 vvcurveto
          41 -33 callgsubr
          22 hlineto
          67 37 -38 -68 302 callgsubr
          49 50 callsubr
          -22 hlineto
          -81 -53 -50 -83 hvcurveto
          -43 vlineto
          -48 15 -31 33 -39 vhcurveto
          -79 -2 -28 -64 -58 vvcurveto
          -92 vlineto
          3 callsubr
          85 hlineto
          61 46 28 50 18 hvcurveto
          endchar
        </CharString>
        <CharString name="aogonek">
          1 204 28 rmoveto
          119 callsubr
          175 -100 callsubr
          -342 vlineto
          -69 -47 -35 -65 vhcurveto
          -72 482 rmoveto
          -21 callgsubr
          74 hlineto
          63 29 26 26 14 hvcurveto
          4 -35 hlineto
          142 callsubr
          endchar
        </CharString>
        <CharString name="apostrophemod">
          -320 107 634 -17 callgsubr
          endchar
        </CharString>
        <CharString name="approxequal">
          15 164 403 rmoveto
          93 callgsubr
          -163 vmoveto
          93 callgsubr
          endchar
        </CharString>
        <CharString name="aring">
          1 169 90 callsubr
          85 -623 23 callgsubr
          -206 -23 callsubr
          184 132 rmoveto
          -69 -47 -35 -65 vhcurveto
          -72 49 callsubr
          175 -100 callsubr
          endchar
        </CharString>
        <CharString name="asciicircum">
          -44 360 374 rmoveto
          -6 4 3 -3 7 hhcurveto
          10 hlineto
          8 3 5 7 -4 hvcurveto
          -134 255 rlineto
          7 -4 -5 4 -10 hhcurveto
          -23 hlineto
          -10 -5 -4 -7 -4 hvcurveto
          -134 -255 rlineto
          -7 -4 3 -5 8 hhcurveto
          10 hlineto
          7 3 3 6 4 hvcurveto
          133 252 rlineto
          endchar
        </CharString>
        <CharString name="asciitilde">
          15 164 325 rmoveto
          93 callgsubr
          endchar
        </CharString>
        <CharString name="asterisk">
          -89 220 634 rmoveto
          -56 callgsubr
          -15 -85 callgsubr
          -17 vlineto
          -48 10 -44 5 -14 vhcurveto
          7 14 9 44 48 vvcurveto
          -101 -196 rmoveto
          -4 -6 1 -4 4 -2 12 -9 rcurveline
          5 -3 3 0 3 5 11 15 rcurveline
          28 38 17 42 5 14 -14 -7 -33 -30 -28 -39 rrcurveto
          -37 129 rmoveto
          -7 2 -3 -2 -1 -5 -5 -14 rcurveline
          -2 -5 2 -3 6 -2 17 -6 rcurveline
          -14 45 45 -4 15 hhcurveto
          -11 11 -39 22 -46 15 rrcurveto
          218 -26 rmoveto
          7 2 1 5 -2 4 -4 14 rcurveline
          -2 6 -2 1 -6 -2 -18 -5 rcurveline
          -46 -15 -38 -23 -12 -9 15 -3 45 6 45 14 rrcurveto
          -46 -126 rmoveto
          4 -6 4 1 4 3 12 8 rcurveline
          5 4 1 3 -4 4 -11 15 rcurveline
          -28 39 -34 29 -12 9 2 -15 19 -41 28 -39 rrcurveto
          endchar
        </CharString>
        <CharString name="at">
          258 480 217 rmoveto
          -69 -46 -35 -65 vhcurveto
          -1 -55 callsubr
          101 -48 callsubr
          103 -100 callsubr
          41 -482 rmoveto
          303 callgsubr
          -111 -106 88 138 hvcurveto
          153 vlineto
          138 106 88 111 vhcurveto
          194 7 callgsubr
          -246 -19 callgsubr
          -12 hlineto
          -6 callgsubr
          332 -45 callsubr
          -134 237 callsubr
          -103 vlineto
          0 callgsubr
          39 46 10 42 23 vhcurveto
          4 -25 hlineto
          -17 13 -12 15 vhcurveto
          23 173 callgsubr
          248 9 callgsubr
          -192 hlineto
          -120 -129 -87 -168 hvcurveto
          -151 vlineto
          -168 129 -87 120 vhcurveto
          endchar
        </CharString>
        <CharString name="atilde">
          3 -47 callsubr
          -36 655 rmoveto
          201 callgsubr
          -16 callgsubr
          endchar
        </CharString>
        <CharString name="b">
          1 80 9 rmoveto
          -98 callgsubr
          206 173 callgsubr
          248 255 callsubr
          226 hlineto
          -93 callgsubr
          39 -666 209 callsubr
          352 vlineto
          69 47 35 65 vhcurveto
          72 7 callgsubr
          -246 -19 callgsubr
          endchar
        </CharString>
        <CharString name="backslash">
          -104 288 11 rmoveto
          -8 3 4 -3 6 hhcurveto
          13 hlineto
          6 5 4 8 -3 hvcurveto
          -218 620 rlineto
          8 -3 -3 3 -7 286 callsubr
          -2 -6 -8 3 hvcurveto
          endchar
        </CharString>
        <CharString name="bar">
          -297 115 634 45 callsubr
          endchar
        </CharString>
        <CharString name="braceleft">
          -204 220 643 rmoveto
          -71 -33 -53 -83 hvcurveto
          -141 vlineto
          -61 -24 -21 -43 -96 callsubr
          vhcurveto
          -12 vlineto
          -93 callsubr
          43 24 -21 -61 vhcurveto
          -140 vlineto
          -83 33 -53 71 vhcurveto
          4 -104 callsubr
          -4 hlineto
          -57 -17 39 callsubr
          140 vlineto
          49 -19 35 -33 11 vhcurveto
          33 11 19 34 50 vvcurveto
          141 vlineto
          68 17 41 57 vhcurveto
          4 147 callgsubr
        </CharString>
        <CharString name="braceright">
          -204 157 507 rmoveto
          83 -33 53 -71 295 callgsubr
          57 17 -41 -68 hvcurveto
          -141 vlineto
          -50 19 -34 33 -11 vhcurveto
          -33 -11 -19 -35 -49 vvcurveto
          -140 vlineto
          -68 -17 -41 -57 295 callgsubr
          71 33 53 83 hvcurveto
          140 vlineto
          61 24 21 43 -90 callsubr
          vhcurveto
          12 vlineto
          -86 callgsubr
          -43 -24 21 61 vhcurveto
          endchar
        </CharString>
        <CharString name="bracketleft">
          -220 198 -102 -13 callsubr
          -99 hlineto
          -6 callgsubr
          673 -95 callgsubr
          99 -104 callsubr
          -130 -85 callgsubr
          -727 vlineto
          -98 callgsubr
          endchar
        </CharString>
        <CharString name="bracketright">
          -220 60 -94 rmoveto
          -99 callgsubr
          130 hlineto
          -84 callsubr
          727 vlineto
          7 -3 2 -5 151 callgsubr
          99 -100 callsubr
          -673 -64 callsubr
          -99 301 callsubr
        </CharString>
        <CharString name="breve">
          -166 70 694 22 callsubr
        </CharString>
        <CharString name="brokenbar">
          -304 113 258 rmoveto
          -56 callgsubr
          -17 -85 callgsubr
          -249 320 callgsubr
          625 vmoveto
          -56 callgsubr
          -17 -85 callgsubr
          -249 320 callgsubr
          endchar
        </CharString>
        <CharString name="bullet">
          -230 167 388 rmoveto
          -56 callgsubr
          -51 -85 callgsubr
          -139 vlineto
          -98 callgsubr
          51 hlineto
          -84 callsubr
          endchar
        </CharString>
        <CharString name="c">
          77 callgsubr
          endchar
        </CharString>
        <CharString name="cacute">
          77 callgsubr
          -59 695 -67 callsubr
        </CharString>
        <CharString name="caron">
          -176 155 574 -63 callgsubr
          endchar
        </CharString>
        <CharString name="ccaron">
          77 callgsubr
          -126 566 -63 callgsubr
          endchar
        </CharString>
        <CharString name="ccedilla">
          -107 346 482 rmoveto
          179 callsubr
          36 hlineto
          -40 -45 rlineto
          191 callgsubr
          46 50 rlineto
          72 -104 callsubr
          -142 49 callsubr
          endchar
        </CharString>
        <CharString name="cedilla">
          -243 77 -45 rmoveto
          191 callgsubr
          65 70 rlineto
          -35 hlineto
          endchar
        </CharString>
        <CharString name="cent">
          -87 267 -89 161 callgsubr
          80 91 vlineto
          -104 callgsubr
          -162 49 callsubr
          162 -104 callsubr
          -91 95 hlineto
          -93 callgsubr
          -95 -41 vlineto
          -21 callgsubr
          41 -80 326 callsubr
        </CharString>
        <CharString name="circumflex">
          -176 184 694 -41 callgsubr
        </CharString>
        <CharString name="colon">
          -310 112 128 33 callsubr
          492 vmoveto
          -20 callgsubr
          -119 vlineto
          68 callgsubr
          endchar
        </CharString>
        <CharString name="comma">
          -310 112 128 -17 callgsubr
          endchar
        </CharString>
        <CharString name="copyright">
          231 209 643 rmoveto
          -5 callsubr
          -371 -32 callsubr
          310 hlineto
          53 callgsubr
          -310 -615 rmoveto
          92 callsubr
          310 7 callgsubr
          -369 -19 callgsubr
          -24 374 rmoveto
          83 -43 33 -81 vhcurveto
          -21 hlineto
          -81 -43 -33 -83 hvcurveto
          -168 vlineto
          -83 43 -33 81 vhcurveto
          21 hlineto
          81 43 33 83 hvcurveto
          24 -94 callsubr
          -23 vlineto
          -68 -27 -21 -67 vhcurveto
          -21 hlineto
          -67 -27 21 68 hvcurveto
          166 vlineto
          68 27 21 67 vhcurveto
          21 hlineto
          67 27 -21 -68 hvcurveto
          -17 vlineto
          -85 callsubr
          endchar
        </CharString>
        <CharString name="currency">
          -34 204 188 328 callgsubr
          66 -48 callsubr
          55 7 callgsubr
          -66 -19 callgsubr
          111 25 rmoveto
          15 22 8 28 33 vvcurveto
          68 vlineto
          32 -8 28 -15 22 vhcurveto
          48 48 298 callgsubr
          -46 -46 rlineto
          19 -23 -31 11 -37 hhcurveto
          -55 hlineto
          -37 -31 -11 -20 -23 hvcurveto
          -47 47 298 callsubr
          48 -48 rlineto
          -14 -22 -8 -28 -32 vvcurveto
          -68 vlineto
          -32 8 -28 15 -22 vhcurveto
          -49 -49 299 callsubr
          47 47 rlineto
          -19 23 31 -11 37 hhcurveto
          55 hlineto
          36 31 11 19 23 hvcurveto
          47 -47 290 callgsubr
        </CharString>
        <CharString name="d">
          1 113 callgsubr
          endchar
        </CharString>
        <CharString name="dagger">
          -65 217 95 callsubr
          0 6 275 43 vvcurveto
          36 -3 55 -1 20 173 callsubr
          145 3 rlineto
          -1 -23 -2 -56 -31 vvcurveto
          -44 6 -275 0 vhcurveto
          -98 callgsubr
          endchar
        </CharString>
        <CharString name="daggerdbl">
          -65 204 438 rmoveto
          -1 -24 -2 -62 -32 vvcurveto
          -33 2 -60 1 -23 vhcurveto
          -145 4 rlineto
          246 callgsubr
          146 4 -4 -173 rlineto
          -85 callsubr
          -4 173 146 -4 rlineto
          140 callgsubr
          -146 -4 rlineto
          1 22 3 57 36 vvcurveto
          36 -3 62 -1 21 173 callsubr
          endchar
        </CharString>
        <CharString name="danda">
          -217 242 callgsubr
          endchar
        </CharString>
        <CharString name="dcaron">
          11 113 callgsubr
          311 694 -17 callgsubr
          endchar
        </CharString>
        <CharString name="dcroat">
          35 388 132 233 callgsubr
          166 -48 callsubr
          72 hlineto
          334 callsubr
          -110 -308 212 callgsubr
          545 -95 callgsubr
          66 -104 callsubr
          -66 hlineto
          -6 callgsubr
          96 -94 callsubr
          -96 -64 callsubr
          -169 -91 callsubr
          169 13 callsubr
          -4 vlineto
          270 callsubr
          -168 -32 callsubr
          endchar
        </CharString>
        <CharString name="degree">
          -221 144 536 rmoveto
          -12 hlineto
          -28 -6 8 27 hvcurveto
          72 vlineto
          27 6 8 28 vhcurveto
          12 hlineto
          28 6 -8 -27 hvcurveto
          -72 vlineto
          -27 -6 -8 -28 vhcurveto
          12 -25 rmoveto
          30 20 18 31 hvcurveto
          97 vlineto
          30 -20 17 -30 vhcurveto
          -37 hlineto
          -31 -18 -17 -30 hvcurveto
          -97 vlineto
          -31 18 -18 31 vhcurveto
          endchar
        </CharString>
        <CharString name="dieresis">
          -171 226 583 rmoveto
          -59 callsubr
        </CharString>
        <CharString name="divide">
          25 246 434 232 callsubr
          64 -94 callsubr
          192 -191 -13 callsubr
          -354 -91 callsubr
          162 -163 232 callsubr
          64 89 callgsubr
        </CharString>
        <CharString name="dollar">
          1 270 -98 161 callgsubr
          89 11 vlineto
          -8 callgsubr
          74 vlineto
          98 -56 31 -77 vhcurveto
          -81 hlineto
          -70 -34 24 77 hvcurveto
          68 -48 callsubr
          80 7 callgsubr
          -29 vlineto
          -85 callsubr
          30 9 callgsubr
          -11 89 hlineto
          -93 callgsubr
          -89 -39 vlineto
          -5 callsubr
          -69 vlineto
          -100 58 -28 82 vhcurveto
          72 hlineto
          68 38 -25 -79 hvcurveto
          -71 -19 callgsubr
          -80 -55 callsubr
          33 -94 callsubr
          -34 -32 callsubr
          39 -89 326 callsubr
        </CharString>
        <CharString name="dotaccent">
          -327 70 589 rmoveto
          61 callgsubr
        </CharString>
        <CharString name="dotlessi">
          -297 67 callsubr
          endchar
        </CharString>
        <CharString name="dottedcircle">
          163 139 517 rmoveto
          -26 18 -19 26 26 18 19 26 25 -18 19 -26 -26 -18 -19 -25 vhcurveto
          -82 -110 rmoveto
          -25 20 -19 26 24 20 19 25 25 -20 19 -24 -26 -20 -19 -25 vhcurveto
          -13 -126 rmoveto
          -25 19 -18 25 26 18 18 337 callgsubr
          52 -116 rmoveto
          -26 18 -18 26 25 19 18 26 25 -19 19 -25 -26 -18 -19 -25 vhcurveto
          101 -75 rmoveto
          -26 19 -20 26 25 19 20 26 24 -19 20 -25 -26 -19 -20 -24 vhcurveto
          127 -16 rmoveto
          -26 18 -18 26 26 19 18 26 26 -19 18 -26 -26 -18 -18 -26 vhcurveto
          121 53 rmoveto
          -26 19 -18 25 25 20 18 26 25 -20 19 -25 -25 -19 -19 -25 vhcurveto
          73 98 rmoveto
          -25 19 -19 26 24 19 19 25 26 -19 19 -24 -26 -19 -19 -26 vhcurveto
          10 134 rmoveto
          -26 18 -18 26 25 19 18 26 26 -19 18 -25 -26 -18 -18 -26 vhcurveto
          -50 118 rmoveto
          -25 19 -19 25 26 18 19 337 callgsubr
          -95 68 rmoveto
          -24 19 -20 26 25 18 20 24 26 -18 19 -25 -26 -19 -19 -26 vhcurveto
          -126 15 rmoveto
          -26 18 -18 26 26 18 18 26 26 -18 18 -26 -26 -18 -18 -26 vhcurveto
          endchar
        </CharString>
        <CharString name="doubledanda">
          13 242 callgsubr
          230 -605 232 callsubr
          605 89 callgsubr
        </CharString>
        <CharString name="dvA">
          98 481 623 rmoveto
          -3 callgsubr
          92 hlineto
          -97 callsubr
          9 vlineto
          -86 callgsubr
          vhcurveto
          endchar
        </CharString>
        <CharString name="dvAA">
          326 479 623 rmoveto
          -3 callgsubr
          182 -100 callsubr
          -581 vlineto
          -7 3 -2 5 vhcurveto
          14 hlineto
          -107 callgsubr
          endchar
        </CharString>
        <CharString name="dvAI">
          30 468 231 callsubr
          40 -58 41 -54 21 -26 rlinecurve
          -429 -11 callsubr
          92 -100 callsubr
          -422 -32 callsubr
          184 hlineto
          303 callgsubr
          -67 -37 41 68 hvcurveto
          421 289 callgsubr
          -3 -5 hvcurveto
          -167 vlineto
          -80 -43 -22 -51 305 callsubr
          45 104 callsubr
          167 -95 callgsubr
          67 -107 callsubr
          endchar
        </CharString>
        <CharString name="dvAU">
          328 731 623 rmoveto
          224 callgsubr
          -63 vlineto
          -83 10 -61 0 vhcurveto
          -3 -1 -139 208 rlineto
          82 callgsubr
          -14 221 callsubr
          -2 1 -2 1 -2 hvcurveto
          63 -93 rlineto
          60 -88 43 -46 0 vvcurveto
          -4 -214 vlineto
          -3 callgsubr
          182 -100 callsubr
          -581 vlineto
          -7 3 -2 5 vhcurveto
          14 hlineto
          -107 callgsubr
          endchar
        </CharString>
        <CharString name="dvAbbreviationsign">
          -120 336 279 rmoveto
          51 9 callgsubr
          -30 237 callsubr
          -51 -32 callsubr
          30 173 callgsubr
          -268 1 rmoveto
          49 -48 callsubr
          30 7 callgsubr
          -49 -19 callgsubr
          -30 327 callsubr
        </CharString>
        <CharString name="dvAcandra">
          98 481 623 rmoveto
          -3 callgsubr
          92 hlineto
          -97 callsubr
          9 vlineto
          -86 callgsubr
          vhcurveto
          12 197 rmoveto
          243 callsubr
          -68 -23 -25 -67 339 callsubr
          -23 25 68 108 callsubr
          -83 39 -38 81 vhcurveto
          61 hlineto
          81 39 38 83 237 callgsubr
          endchar
        </CharString>
        <CharString name="dvAnusvara">
          -497 -100 741 rmoveto
          -25 callsubr
          endchar
        </CharString>
        <CharString name="dvAnusvara.amI">
          -497 80 741 rmoveto
          -25 callsubr
          endchar
        </CharString>
        <CharString name="dvAvagraha">
          27 431 202 rmoveto
          61 -22 27 -130 70 vhcurveto
          -113 61 -5 45 38 vvcurveto
          64 7 30 81 vhcurveto
          129 -107 callsubr
          -130 hlineto
          -102 -15 -40 -80 -59 12 -46 122 -65 hvcurveto
          98 -51 38 -27 -53 vvcurveto
          -72 vlineto
          -58 -15 -44 -82 vhcurveto
          -37 hlineto
          -58 -36 33 54 -51 hvcurveto
          4 -4 -4 4 -4 hhcurveto
          -3 -2 -1 -3 -3 hvcurveto
          -3 -3 rlineto
          -2 -2 -1 -2 -3 vvcurveto
          -4 4 -6 4 -4 vhcurveto
          -36 34 54 -59 73 hhcurveto
          40 hlineto
          94 32 48 82 hvcurveto
          endchar
        </CharString>
        <CharString name="dvB">
          -237 379 615 rmoveto
          -102 callgsubr
          -371 -11 callsubr
          371 hlineto
          -97 callsubr
          -175 251 callsubr
          112 142 312 callsubr
          -27 vlineto
          -12 -1 -10 -2 -10 vhcurveto
          -230 243 205 callsubr
          -81 -53 -50 -83 hvcurveto
          120 callsubr
          52 89 callsubr
          28 267 callgsubr
        </CharString>
        <CharString name="dvBA">
          -15 261 callgsubr
          -33 -18 -45 hhcurveto
          -249 47 callsubr
          344 -100 callsubr
          -369 vlineto
          -7 0 -7 -1 -6 vhcurveto
          -224 236 205 callsubr
          -81 -53 -50 -83 hvcurveto
          120 callsubr
          44 -52 callsubr
          -131 hlineto
          -7 3 -2 5 vhcurveto
          14 hlineto
          -107 callgsubr
          endchar
        </CharString>
        <CharString name="dvBH">
          -240 352 312 rmoveto
          -97 callsubr
          11 -103 callgsubr
          -229 56 callgsubr
          228 286 rmoveto
          7 2 3 5 hvcurveto
          9 vlineto
          5 -2 3 -7 159 callsubr
          endchar
        </CharString>
        <CharString name="dvBHA">
          -11 347 312 292 callsubr
          -295 vlineto
          -7 3 -2 5 vhcurveto
          14 hlineto
          -107 callgsubr
          -229 -11 callsubr
          89 131 callsubr
          -224 56 callgsubr
          endchar
        </CharString>
        <CharString name="dvBH_LA">
          449 294 callsubr
          549 165 callgsubr
          -4 hlineto
          53 -17 -48 17 -52 hhcurveto
          -72 -50 -32 -72 -10 hvcurveto
          -219 56 callgsubr
          216 -2 hlineto
          -136 vlineto
          -89 callgsubr
          38 25 66 67 37 -28 -78 vhcurveto
          -300 vlineto
          -7 3 -2 5 vhcurveto
          14 hlineto
          -107 callgsubr
          endchar
        </CharString>
        <CharString name="dvBH_NA">
          251 256 -79 callsubr
          353 hlineto
          151 callsubr
          -33 -23 -11 -18 -15 hvcurveto
          -226 56 callgsubr
          211 hlineto
          -3 -10 -2 -11 -12 vvcurveto
          -20 6 -27 162 callsubr
          188 -100 callsubr
          -324 vlineto
          -7 3 -2 5 vhcurveto
          14 hlineto
          -107 callgsubr
          endchar
        </CharString>
        <CharString name="dvBH_R">
          -246 123 339 rmoveto
          -24 callsubr
          226 -10 hlineto
          -244 -287 -26 callsubr
          12 hlineto
          7 3 3 6 5 hvcurveto
          224 265 12 14 4 9 1 21 rlinecurve
          2 vlineto
          11 -103 callgsubr
          -111 189 callgsubr
          119 -107 callsubr
          endchar
        </CharString>
        <CharString name="dvBH_RA">
          -11 258 623 rmoveto
          -7 -2 -3 -5 hvcurveto
          -9 vlineto
          -5 2 -3 7 vhcurveto
          89 hlineto
          7 2 -3 -5 hvcurveto
          -243 vlineto
          -5 -2 -3 -7 vhcurveto
          -224 56 callgsubr
          223 hlineto
          5 2 -1 -3 1 hvcurveto
          -249 -293 -26 callsubr
          12 hlineto
          7 3 3 6 5 hvcurveto
          219 259 rlineto
          -259 vlineto
          -7 3 -2 5 vhcurveto
          14 hlineto
          -107 callgsubr
          endchar
        </CharString>
        <CharString name="dvBH_R_YA">
          320 687 251 -90 callgsubr
          -430 -62 callgsubr
          131 -58 callgsubr
          -47 -210 vlineto
          -24 callsubr
          209 -29 hlineto
          -227 -268 -26 callsubr
          12 hlineto
          7 3 3 6 5 hvcurveto
          197 232 rlineto
          -80 6 56 -49 81 hhcurveto
          235 callgsubr
          -157 hlineto
          -7 3 -2 5 vhcurveto
          14 hlineto
          -107 callgsubr
          endchar
        </CharString>
        <CharString name="dvBH_VA">
          247 294 callsubr
          348 -7 callgsubr
          -101 callgsubr
          -81 -53 -50 -83 hvcurveto
          -14 -215 vlineto
          -24 callsubr
          214 -82 hlineto
          3 callsubr
          -10 callsubr
          13 hlineto
          -107 callgsubr
          endchar
        </CharString>
        <CharString name="dvBH_YA">
          321 688 251 -90 callgsubr
          -430 -62 callgsubr
          131 -58 callgsubr
          -47 -211 vlineto
          -24 callsubr
          210 -57 217 callsubr
          -157 hlineto
          -7 3 -2 5 vhcurveto
          14 hlineto
          -107 callgsubr
          endchar
        </CharString>
        <CharString name="dvB_BA">
          275 494 52 callsubr
          -33 -18 -45 hhcurveto
          -334 hmoveto
          -6 callsubr
          634 -100 callsubr
          -369 vlineto
          -7 0 -7 -1 -6 vhcurveto
          -224 236 205 callsubr
          -81 -53 -50 -83 hvcurveto
          -133 vlineto
          -12 -1 -10 -2 -10 vhcurveto
          -230 243 205 callsubr
          -81 -53 -50 -83 hvcurveto
          120 callsubr
          52 hlineto
          55 43 23 42 21 hvcurveto
          -42 21 43 -23 55 hhcurveto
          44 -52 callsubr
          -131 hlineto
          -7 3 -2 5 vhcurveto
          14 hlineto
          -107 callgsubr
          endchar
        </CharString>
        <CharString name="dvB_BHA">
          257 261 callgsubr
          -31 -18 -46 hhcurveto
          277 503 203 callsubr
          -275 -11 callsubr
          275 155 callsubr
          -293 vlineto
          -9 -1 -9 -1 -8 vhcurveto
          -224 237 205 callsubr
          -81 -53 -50 -83 hvcurveto
          120 callsubr
          45 hlineto
          80 53 50 82 1 hvcurveto
          1 vlineto
          79 -95 callgsubr
          232 -303 hlineto
          -7 3 -2 5 vhcurveto
          14 hlineto
          -107 callgsubr
          endchar
        </CharString>
        <CharString name="dvB_BH_RA">
          257 261 callgsubr
          -31 -18 -46 hhcurveto
          277 503 203 callsubr
          -275 -11 callsubr
          275 155 callsubr
          -293 vlineto
          -9 -1 -9 -1 -8 vhcurveto
          -224 237 205 callsubr
          -81 -53 -50 -83 hvcurveto
          120 callsubr
          45 hlineto
          80 53 50 82 1 hvcurveto
          1 vlineto
          79 -95 callgsubr
          232 -3 hlineto
          -250 -294 -26 callsubr
          12 hlineto
          7 3 3 6 5 hvcurveto
          219 259 rlineto
          -259 vlineto
          -7 3 -2 5 vhcurveto
          14 hlineto
          -107 callgsubr
          endchar
        </CharString>
        <CharString name="dvB_DA">
          276 204 120 rmoveto
          -6 callsubr
          639 88 callgsubr
          -81 -53 -53 -83 hvcurveto
          -101 vlineto
          -12 -1 -10 -2 -10 vhcurveto
          -230 243 205 callsubr
          -81 -53 -50 -83 hvcurveto
          120 callsubr
          52 hlineto
          56 43 24 43 21 hvcurveto
          -42 21 42 -24 55 hhcurveto
          51 callgsubr
        </CharString>
        <CharString name="dvB_DHA">
          347 288 callgsubr
          235 -248 rlineto
          -29 -16 -31 -16 -43 hhcurveto
          357 47 callsubr
          91 hlineto
          333 callgsubr
          132 callgsubr
          48 41 callgsubr
          24 hlineto
          -97 callsubr
          9 vlineto
          -86 callgsubr
          vhcurveto
          -504 -11 callsubr
          400 158 callsubr
          -43 -14 -20 -32 -2 -55 rrcurveto
          -2 vlineto
          -27 vlineto
          -12 -1 -10 -2 -10 vhcurveto
          -230 243 205 callsubr
          -81 -53 -50 -83 hvcurveto
          120 callsubr
          52 hlineto
          50 40 19 35 22 hvcurveto
          -49 18 44 -25 62 hhcurveto
          117 hlineto
          46 38 16 34 16 hvcurveto
          4 -113 hlineto
          -7 3 -2 5 vhcurveto
          14 hlineto
          -107 callgsubr
          endchar
        </CharString>
        <CharString name="dvB_DH_VA">
          590 288 callgsubr
          232 -245 rlineto
          -34 -28 -18 -14 -49 hhcurveto
          410 47 callsubr
          291 -7 callgsubr
          -101 callgsubr
          -81 -53 -50 -83 hvcurveto
          -123 vlineto
          -31 8 -27 13 -21 vhcurveto
          -25 -25 -22 -15 -44 hhcurveto
          -117 hlineto
          26 callsubr
          27 285 callsubr
          -521 -11 callsubr
          402 38 callsubr
          -29 187 callgsubr
          -44 vlineto
          -7 0 -7 1 -7 vhcurveto
          0 vlineto
          -236 249 205 callsubr
          -81 -53 -50 -83 hvcurveto
          120 callsubr
          44 hlineto
          66 31 33 33 25 hvcurveto
          -50 17 45 -25 62 hhcurveto
          117 hlineto
          56 30 25 23 22 hvcurveto
          -22 23 33 -12 40 hhcurveto
          -10 callsubr
          13 hlineto
          -107 callgsubr
          endchar
        </CharString>
        <CharString name="dvB_JA">
          380 100 332 rmoveto
          24 4 20 9 16 vhcurveto
          235 -288 rlineto
          -144 -49 callsubr
          -101 413 -92 callsubr
          739 225 callsubr
          -79 6 callgsubr
          -98 hlineto
          -254 311 rlineto
          15 18 24 8 31 -39 callgsubr
          -124 vlineto
          3 callsubr
          278 104 callsubr
          79 vlineto
          46 -13 35 -30 17 vhcurveto
          4 174 7 callsubr
          -370 vlineto
          -7 3 -2 5 vhcurveto
          14 hlineto
          -107 callgsubr
          endchar
        </CharString>
        <CharString name="dvB_JHA">
          452 819 284 84 callgsubr
          -326 hlineto
          -67 -27 19 58 hvcurveto
          35 94 callsubr
          172 -100 callsubr
          -615 -470 rmoveto
          -6 callsubr
          591 -100 callsubr
          -89 -64 callsubr
          -106 hlineto
          -81 -43 -32 -73 hvcurveto
          -162 vlineto
          -12 -1 -10 -2 -10 vhcurveto
          -230 243 205 callsubr
          -81 -53 -50 -83 hvcurveto
          120 callsubr
          52 hlineto
          81 50 50 83 hvcurveto
          56 vlineto
          -21 21 32 -12 44 hhcurveto
          61 hlineto
          60 24 -22 -55 hvcurveto
          -70 vlineto
          -58 -27 -21 -67 vhcurveto
          -38 hlineto
          -63 -31 18 61 -72 callgsubr
          hvcurveto
          -12 -85 callgsubr
          -191 vlineto
          -98 callgsubr
          12 hlineto
          -84 callsubr
          117 4 vlineto
          -28 18 34 -5 38 hhcurveto
          38 hlineto
          81 43 33 73 hvcurveto
          72 vlineto
          34 -9 28 -21 14 vhcurveto
          181 -100 callsubr
          -231 vlineto
          -7 3 -2 5 vhcurveto
          14 hlineto
          -107 callgsubr
          endchar
        </CharString>
        <CharString name="dvB_J_YA">
          733 1100 251 -90 callgsubr
          -1000 -258 rmoveto
          24 4 20 9 16 vhcurveto
          235 -288 rlineto
          -144 -49 callsubr
          -101 413 -92 callsubr
          802 234 callsubr
          -28 hlineto
          27 -7 -18 14 -38 hhcurveto
          -294 hlineto
          -39 callsubr
          -99 vlineto
          -80 -43 -22 -51 vhcurveto
          -98 hlineto
          -254 311 rlineto
          15 18 24 8 31 -39 callgsubr
          -124 vlineto
          3 callsubr
          278 104 callsubr
          99 vlineto
          46 -13 35 -30 17 vhcurveto
          4 146 vlineto
          34 2 -13 -32 hvcurveto
          -107 vlineto
          39 callgsubr
          235 callgsubr
          -157 hlineto
          -7 3 -2 5 vhcurveto
          14 hlineto
          -107 callgsubr
          endchar
        </CharString>
        <CharString name="dvB_JxA">
          380 436 15 rmoveto
          -73 callgsubr
          106 callsubr
          -356 317 rmoveto
          24 4 20 9 16 vhcurveto
          235 -288 rlineto
          -144 -49 callsubr
          -101 413 -92 callsubr
          739 225 callsubr
          -79 6 callgsubr
          -98 hlineto
          -254 311 rlineto
          15 18 24 8 31 -39 callgsubr
          -124 vlineto
          3 callsubr
          278 104 callsubr
          79 vlineto
          46 -13 35 -30 17 vhcurveto
          4 174 7 callsubr
          -370 vlineto
          -7 3 -2 5 vhcurveto
          14 hlineto
          -107 callgsubr
          endchar
        </CharString>
        <CharString name="dvB_LA">
          469 204 120 rmoveto
          -6 callsubr
          828 165 callgsubr
          -4 hlineto
          4 callsubr
          -84 vlineto
          -12 -1 -10 -2 -10 vhcurveto
          -230 243 205 callsubr
          -81 -53 -50 -83 hvcurveto
          120 callsubr
          52 hlineto
          49 37 18 33 21 hvcurveto
          -73 13 49 -29 69 166 callsubr
          -300 vlineto
          -7 3 -2 5 vhcurveto
          14 hlineto
          -107 callgsubr
          endchar
        </CharString>
        <CharString name="dvB_L_YA">
          -237 1190 47 callgsubr
          80 24 vlineto
          75 50 35 91 hvcurveto
          42 31 callsubr
          -986 -470 rmoveto
          -6 callsubr
          892 206 callgsubr
          -28 hlineto
          82 -6 -64 27 -61 167 callsubr
          -4 hlineto
          4 callsubr
          -114 vlineto
          -12 -1 -10 -2 -10 vhcurveto
          -230 243 205 callsubr
          -81 -53 -50 -83 hvcurveto
          120 callsubr
          52 hlineto
          50 40 19 35 23 hvcurveto
          -52 18 45 -23 62 hhcurveto
          -96 callgsubr
          38 25 66 66 38 -25 -80 vhcurveto
          -85 vlineto
          39 callgsubr
          235 callgsubr
          -157 hlineto
          -7 3 -2 5 vhcurveto
          14 hlineto
          -107 callgsubr
          endchar
        </CharString>
        <CharString name="dvB_NA">
          301 341 171 rmoveto
          -33 -16 -31 -18 -46 hhcurveto
          -44 -49 callsubr
          132 vlineto
          21 3 18 7 15 vhcurveto
          152 52 -13 callsubr
          -58 hlineto
          -81 -53 -50 -83 hvcurveto
          120 callsubr
          44 hlineto
          64 38 31 53 24 hvcurveto
          -247 260 rlineto
          18 17 26 10 34 hhcurveto
          -205 159 -92 callsubr
          660 hlineto
          7 2 -3 -5 hvcurveto
          -214 vlineto
          -5 -2 -3 -7 vhcurveto
          208 callgsubr
          188 -100 callsubr
          -324 vlineto
          -7 3 -2 5 vhcurveto
          14 hlineto
          -107 callgsubr
          endchar
        </CharString>
        <CharString name="dvB_R">
          -240 362 216 rmoveto
          -3 -8 -2 -6 -4 -6 -226 240 rcurveline
          18 17 26 10 34 -39 callgsubr
          120 callsubr
          64 -4 hlineto
          0 -25 -17 -40 -36 vhcurveto
          -67 -58 -26 callsubr
          16 153 callsubr
          109 95 59 51 25 25 25 67 rlinecurve
          1 3 1 4 3 vvcurveto
          7 -4 2 -3 1 vhcurveto
          -7 2 -4 1 -2 0 -3 -2 rlinecurve
          -3 -2 0 -5 -3 -7 rrcurveto
          -262 142 rmoveto
          21 3 18 7 15 vhcurveto
          231 -241 rlineto
          -32 -15 -33 -19 -45 hhcurveto
          -44 -49 callsubr
          -101 397 -92 callsubr
          375 -107 callsubr
          endchar
        </CharString>
        <CharString name="dvB_RA">
          -15 266 88 rmoveto
          0 -23 -17 -40 -36 vhcurveto
          -67 -58 -26 callsubr
          16 153 callsubr
          107 95 322 callsubr
          -125 hlineto
          -7 3 -2 5 vhcurveto
          14 hlineto
          -107 callgsubr
          -484 -11 callsubr
          344 -100 callsubr
          -369 vlineto
          -7 -1 -7 -1 -7 vhcurveto
          -223 236 rlineto
          18 17 26 10 34 -39 callgsubr
          120 callsubr
          62 hlineto
          -166 266 rmoveto
          296 callgsubr
          -44 -49 callsubr
          endchar
        </CharString>
        <CharString name="dvB_SA">
          396 763 329 -16 callsubr
          -559 -470 rmoveto
          -6 callsubr
          508 276 callsubr
          -87 vlineto
          -12 -1 -10 -2 -10 vhcurveto
          -230 243 205 callsubr
          -81 -53 -50 -83 hvcurveto
          120 callsubr
          52 hlineto
          81 51 50 83 hvcurveto
          30 vlineto
          140 -246 -70 callsubr
          -158 275 rlineto
          321 callsubr
          -276 vlineto
          -7 3 -2 5 vhcurveto
          14 hlineto
          -107 callgsubr
          endchar
        </CharString>
        <CharString name="dvB_SHA">
          428 314 615 rmoveto
          -102 callgsubr
          -306 -11 callsubr
          306 hlineto
          -97 callsubr
          -110 251 callsubr
          138 331 86 callsubr
          -150 hlineto
          -101 callsubr
          -76 vlineto
          -12 -1 -10 -2 -10 vhcurveto
          -230 243 205 callsubr
          -81 -53 -50 -83 hvcurveto
          120 callsubr
          52 hlineto
          81 50 50 83 hvcurveto
          28 vlineto
          160 -244 rlineto
          -6 4 3 -3 7 hhcurveto
          13 hlineto
          5 3 2 4 2 -1 2 -2 3 hvcurveto
          -177 269 rlineto
          116 109 callgsubr
          417 120 rmoveto
          221 callgsubr
          -596 vlineto
          -7 3 -2 5 vhcurveto
          14 hlineto
          -107 callgsubr
          endchar
        </CharString>
        <CharString name="dvB_TA">
          283 204 120 rmoveto
          -6 callsubr
          642 -100 callsubr
          -173 -64 callsubr
          -156 228 callsubr
          -53 vlineto
          -12 -1 -10 -2 -10 vhcurveto
          -230 243 205 callsubr
          -81 -53 -50 -83 hvcurveto
          120 callsubr
          52 hlineto
          44 37 15 27 23 hvcurveto
          -4 vlineto
          -81 callgsubr
          149 vlineto
          64 callsubr
          -364 vlineto
          -7 3 -2 5 vhcurveto
          14 hlineto
          -107 callgsubr
          endchar
        </CharString>
        <CharString name="dvB_VA">
          269 204 120 rmoveto
          -6 callsubr
          629 -7 callgsubr
          -101 callgsubr
          -81 -53 -50 -83 hvcurveto
          -127 vlineto
          -12 -1 -10 -2 -10 vhcurveto
          -230 243 205 callsubr
          -81 -53 -50 -83 hvcurveto
          120 callsubr
          52 hlineto
          59 42 27 47 18 hvcurveto
          -43 21 43 -26 55 hhcurveto
          -10 callsubr
          13 hlineto
          -107 callgsubr
          endchar
        </CharString>
        <CharString name="dvB_YA">
          347 714 251 -90 callgsubr
          -510 -470 rmoveto
          -6 callsubr
          416 -14 callgsubr
          -1 vlineto
          -1 vlineto
          -27 vlineto
          -12 -1 -10 -2 -10 vhcurveto
          -230 243 205 callsubr
          -81 -53 -50 -83 hvcurveto
          120 callsubr
          52 hlineto
          62 46 30 51 18 hvcurveto
          -39 24 43 -22 55 hhcurveto
          235 callgsubr
          -157 hlineto
          -7 3 -2 5 vhcurveto
          14 hlineto
          -107 callgsubr
          endchar
        </CharString>
        <CharString name="dvC">
          -173 429 80 callsubr
          -430 -11 callsubr
          323 -486 214 callsubr
          -79 -9 callsubr
          -4 hlineto
          266 callgsubr
          -50 81 vhcurveto
          endchar
        </CharString>
        <CharString name="dvCA">
          59 156 397 rmoveto
          266 callgsubr
          -50 81 vhcurveto
          79 -52 callsubr
          -151 hlineto
          -7 3 -2 5 vhcurveto
          14 hlineto
          -107 callgsubr
          -558 -11 callsubr
          418 -100 callsubr
          -349 247 callsubr
          -79 -9 callsubr
          hlineto
          endchar
        </CharString>
        <CharString name="dvCH">
          91 -1 623 200 callgsubr
          167 173 callgsubr
          185 vlineto
          83 -43 40 -81 vhcurveto
          -39 -11 callsubr
          39 247 callgsubr
          -183 -19 callgsubr
          -167 hlineto
          -67 -27 31 68 hvcurveto
          49 vlineto
          63 29 33 65 49 callgsubr
          -62 -32 33 63 hvcurveto
          59 99 callgsubr
          387 -107 callsubr
          endchar
        </CharString>
        <CharString name="dvCHA">
          91 345 440 -45 callgsubr
          -385 183 rmoveto
          -7 -2 -3 -5 hvcurveto
          -9 vlineto
          -5 2 -3 7 vhcurveto
          123 -4 hlineto
          -29 -16 -10 -31 -47 vvcurveto
          -61 vlineto
          -55 18 -34 47 -17 vhcurveto
          -4 vlineto
          -45 -15 -20 -34 -59 102 callgsubr
        </CharString>
        <CharString name="dvCH_R">
          91 315 -132 rmoveto
          82 callgsubr
          -10 hlineto
          -54 callsubr
          -59 700 -45 callgsubr
          -385 183 200 callgsubr
          55 27 callsubr
          43 11 callsubr
        </CharString>
        <CharString name="dvCH_RA">
          91 345 440 -45 callgsubr
          -385 183 200 callgsubr
          55 27 callsubr
          43 11 callsubr
        </CharString>
        <CharString name="dvCH_R_YA">
          571 938 251 75 callsubr
          40 -89 hvcurveto
          -324 -11 callsubr
          39 247 callgsubr
          -183 -19 callgsubr
          -167 hlineto
          -67 -27 31 68 hvcurveto
          49 vlineto
          63 29 33 65 49 callgsubr
          -62 -32 33 63 hvcurveto
          59 99 callgsubr
          727 -100 callsubr
          -939 197 callgsubr
          83 hlineto
          -114 -149 rlineto
          -57 callgsubr
          -114 149 rlineto
          39 173 callgsubr
          185 vlineto
          45 -13 33 -25 20 vhcurveto
          199 79 callgsubr
          -157 hlineto
          -7 3 -2 5 vhcurveto
          14 hlineto
          -107 callgsubr
          endchar
        </CharString>
        <CharString name="dvCH_YA">
          573 940 240 75 callsubr
          43 -89 hvcurveto
          -326 -91 callsubr
          39 hlineto
          67 27 -28 -68 hvcurveto
          -175 -19 callgsubr
          -167 hlineto
          -67 -27 31 68 hvcurveto
          49 vlineto
          63 29 33 65 49 callgsubr
          -62 -32 33 63 hvcurveto
          59 99 callgsubr
          729 -100 callsubr
          -941 197 callgsubr
          167 173 callgsubr
          177 vlineto
          43 -12 32 -22 20 vhcurveto
          197 79 callgsubr
          -146 hlineto
          -7 3 -2 5 vhcurveto
          14 hlineto
          -107 callgsubr
          endchar
        </CharString>
        <CharString name="dvC_CA">
          359 -76 callsubr
          718 -100 callsubr
          -349 247 callsubr
          -79 -49 callsubr
          49 176 callgsubr
          -245 -91 callsubr
          95 297 callgsubr
          -22 4 -20 7 -16 vhcurveto
          -4 -4 rlineto
          -27 -27 -21 -16 -46 hhcurveto
          -79 -49 callsubr
          49 vlineto
          66 35 40 64 vhcurveto
          28 -104 callsubr
          -235 81 callgsubr
          -4 hlineto
          266 callgsubr
          -50 81 vhcurveto
          79 hlineto
          58 30 27 24 23 hvcurveto
          -33 23 38 -18 49 hhcurveto
          79 -52 callsubr
          -151 hlineto
          -7 3 -2 5 vhcurveto
          14 hlineto
          -107 callgsubr
          endchar
        </CharString>
        <CharString name="dvC_CHA">
          427 681 440 -45 callgsubr
          -721 218 callgsubr
          459 98 callgsubr
          -35 vlineto
          -3 -3 rlineto
          -27 -27 -21 -16 -46 hhcurveto
          -79 -9 callsubr
          -4 hlineto
          266 callgsubr
          -50 81 vhcurveto
          79 hlineto
          48 28 18 20 22 hvcurveto
          -70 6 43 -36 74 hhcurveto
          167 11 callsubr
        </CharString>
        <CharString name="dvC_CH_VA">
          416 670 480 82 callsubr
          -96 -19 callgsubr
          -167 hlineto
          -67 -27 31 68 hvcurveto
          10 vlineto
          63 29 33 65 49 callgsubr
          -62 -32 33 63 hvcurveto
          19 99 callgsubr
          235 -100 callsubr
          -99 vlineto
          -8 -1 -7 -3 -5 vhcurveto
          6 -16 -20 3 -22 hhcurveto
          -152 -533 rmoveto
          -67 -27 31 68 44 23 33 62 hvcurveto
          151 hlineto
          28 24 6 12 20 hvcurveto
          -85 -19 callgsubr
          -668 676 -92 callsubr
          448 38 callsubr
          -21 187 callgsubr
          -12 vlineto
          -24 4 -22 7 -17 vhcurveto
          -3 -3 rlineto
          -27 -27 -21 -16 -46 hhcurveto
          -79 -9 callsubr
          -4 hlineto
          266 callgsubr
          -50 81 vhcurveto
          79 hlineto
          58 30 27 24 23 hvcurveto
          11 -14 15 -11 18 -6 rrcurveto
          -26 -16 -18 -27 -44 vvcurveto
          -83 43 -43 81 vhcurveto
          110 173 callgsubr
          112 vlineto
          21 25 11 36 43 vvcurveto
          86 vlineto
          46 -13 33 -26 20 vhcurveto
          5 8 2 11 13 vvcurveto
          102 -95 callgsubr
          104 -107 callsubr
          endchar
        </CharString>
        <CharString name="dvC_MA">
          324 691 367 rmoveto
          160 callsubr
          222 -74 callsubr
          -692 -62 callgsubr
          412 -100 callsubr
          -324 16 callgsubr
          -73 -9 callsubr
          -4 hlineto
          266 callgsubr
          -50 81 vhcurveto
          73 89 callsubr
          59 -74 callsubr
          -315 vlineto
          -7 3 -2 5 vhcurveto
          14 hlineto
          -107 callgsubr
          endchar
        </CharString>
        <CharString name="dvC_NA">
          319 -76 callsubr
          678 -100 callsubr
          -224 vlineto
          315 callgsubr
          -17 4 -16 hvcurveto
          -25 -25 -21 -16 -44 hhcurveto
          -71 -49 callsubr
          19 176 callgsubr
          -275 81 callgsubr
          -4 hlineto
          202 callgsubr
          -21 vlineto
          3 callsubr
          71 hlineto
          49 28 19 20 22 hvcurveto
          3 -8 3 -8 3 -7 222 callgsubr
          -314 vlineto
          -7 3 -2 5 vhcurveto
          14 hlineto
          -107 callgsubr
          endchar
        </CharString>
        <CharString name="dvC_R">
          -173 407 80 callsubr
          -408 -11 callsubr
          355 -508 rmoveto
          46 35 22 20 21 21 156 callsubr
          -66 -9 callsubr
          -4 hlineto
          266 callgsubr
          -49 81 vhcurveto
          96 -4 hlineto
          253 callgsubr
          endchar
        </CharString>
        <CharString name="dvC_RA">
          59 339 109 rmoveto
          253 callgsubr
          140 108 rlineto
          46 36 22 23 0 vvcurveto
          4 -143 hlineto
          -7 3 -2 5 vhcurveto
          14 hlineto
          -107 callgsubr
          -558 -11 callsubr
          418 -100 callsubr
          -349 247 callsubr
          -79 -9 callsubr
          -4 hlineto
          266 callgsubr
          -49 81 vhcurveto
          96 hlineto
          endchar
        </CharString>
        <CharString name="dvC_YA">
          395 762 251 -90 callgsubr
          -763 -62 callgsubr
          464 -14 callgsubr
          -25 5 -23 9 -19 vhcurveto
          -2 -1 -2 -2 -2 -2 rrcurveto
          -27 -27 -21 -16 -46 hhcurveto
          -79 -9 callsubr
          -4 hlineto
          266 callgsubr
          -50 81 vhcurveto
          79 hlineto
          330 callgsubr
          1 1 rlineto
          -34 25 41 -19 51 hhcurveto
          235 callgsubr
          -157 hlineto
          -7 3 -2 5 vhcurveto
          14 hlineto
          -107 callgsubr
          endchar
        </CharString>
        <CharString name="dvCandrabindu">
          -497 -84 684 -4 callsubr
          49 156 rmoveto
          -25 callsubr
          endchar
        </CharString>
        <CharString name="dvD">
          -7 238 8 rmoveto
          -54 callsubr
          -89 128 rlineto
          82 callgsubr
          -39 455 69 callgsubr
        </CharString>
        <CharString name="dvDA">
          -7 209 463 69 callgsubr
        </CharString>
        <CharString name="dvDA_mvR">
          -99 334 63 -13 callsubr
          -125 268 callsubr
          61 -104 callsubr
          -61 206 callsubr
          86 -20 callsubr
          109 -95 callgsubr
          79 -107 callsubr
          -400 -11 callsubr
          274 hlineto
          7 2 -3 -5 hvcurveto
          -91 -64 callsubr
          -64 212 callsubr
          -30 vlineto
          -73 43 -33 81 vhcurveto
          endchar
        </CharString>
        <CharString name="dvDD">
          -17 247 -52 rmoveto
          -54 callsubr
          -89 128 rlineto
          82 callgsubr
          -258 675 118 callgsubr
          -119 256 callsubr
          -32 -73 hvcurveto
          -22 vlineto
          250 callgsubr
          78 hlineto
          67 30 -19 -58 hvcurveto
          -47 vlineto
          -58 -34 -21 -62 vhcurveto
          -92 hlineto
          -56 -30 284 callgsubr
          46 -33 70 vhcurveto
          92 hlineto
          75 51 33 73 hvcurveto
          49 vlineto
          73 -46 31 -81 vhcurveto
          -78 238 callgsubr
          20 124 callgsubr
          159 -21 callsubr
          90 -107 callsubr
          endchar
        </CharString>
        <CharString name="dvDDA">
          -17 -1 623 118 callgsubr
          -119 256 callsubr
          -32 -73 hvcurveto
          -22 vlineto
          250 callgsubr
          78 hlineto
          67 30 -19 -58 hvcurveto
          -47 vlineto
          -58 -34 -21 -62 vhcurveto
          -92 hlineto
          -56 -30 284 callgsubr
          46 -33 70 vhcurveto
          92 hlineto
          75 51 33 73 hvcurveto
          49 vlineto
          73 -46 31 -81 vhcurveto
          -78 238 callgsubr
          20 124 callgsubr
          159 -21 callsubr
          90 -107 callsubr
          endchar
        </CharString>
        <CharString name="dvDDH">
          -12 241 -32 rmoveto
          -54 callsubr
          -89 128 rlineto
          82 callgsubr
          58 73 rmoveto
          -46 callsubr
          -487 hlineto
          78 callgsubr
          endchar
        </CharString>
        <CharString name="dvDDHA">
          -12 309 41 rmoveto
          -46 callsubr
          -487 hlineto
          78 callgsubr
          endchar
        </CharString>
        <CharString name="dvDDH_DDHA">
          -10 -1 623 226 callsubr
          -77 vlineto
          -59 27 -44 45 -20 vhcurveto
          -43 -21 -26 -42 -58 vvcurveto
          -77 312 callgsubr
          hlineto
          81 43 43 83 hvcurveto
          5 -18 callsubr
          -4 vlineto
          -68 -27 -31 -67 vhcurveto
          -100 -55 callsubr
          75 -48 callsubr
          97 hlineto
          81 43 43 83 hvcurveto
          5 -18 callsubr
          -4 vlineto
          -68 -27 -31 -67 vhcurveto
          -100 -55 callsubr
          75 222 callsubr
        </CharString>
        <CharString name="dvDDH_R">
          -12 279 -121 rmoveto
          82 callgsubr
          -10 hlineto
          -54 callsubr
          -369 872 rmoveto
          78 callgsubr
          21 hlineto
          -102 -134 rlineto
          -57 callgsubr
          -102 134 rlineto
          10 hlineto
          -46 callsubr
          endchar
        </CharString>
        <CharString name="dvDDH_RA">
          -12 194 callgsubr
          18 27 callsubr
          13 hlineto
          -46 callsubr
          endchar
        </CharString>
        <CharString name="dvDDH_VA">
          -22 377 10 rmoveto
          314 callgsubr
          -65 hlineto
          -67 -27 31 62 52 29 26 51 4 hvcurveto
          10 hlineto
          100 hlineto
          29 25 6 11 19 hvcurveto
          -383 524 226 callsubr
          -126 vlineto
          -58 26 -44 44 -21 vhcurveto
          -31 -14 -25 -29 -52 vvcurveto
          -78 43 -43 81 vhcurveto
          65 329 callgsubr
          118 vlineto
          14 20 7 27 34 vvcurveto
          35 -18 callsubr
          -34 vlineto
          -68 -27 -31 -67 vhcurveto
          -100 -55 callsubr
          124 222 callsubr
        </CharString>
        <CharString name="dvDDH_YA">
          477 844 200 75 callsubr
          43 -89 hvcurveto
          -200 150 -14 callsubr
          451 -100 callsubr
          -845 33 rmoveto
          78 callgsubr
          100 hlineto
          81 43 43 83 hvcurveto
          15 -18 callsubr
          -14 vlineto
          -68 -27 -31 -67 vhcurveto
          -100 -12 callgsubr
          366 79 callgsubr
          -106 hlineto
          -7 3 -2 5 vhcurveto
          14 hlineto
          -107 callgsubr
          endchar
        </CharString>
        <CharString name="dvDDHxA">
          -12 309 41 rmoveto
          -46 callsubr
          -487 hlineto
          78 callgsubr
          59 -122 rmoveto
          25 vlineto
          7 -3 2 -5 vhcurveto
          -20 hlineto
          -73 callgsubr
          endchar
        </CharString>
        <CharString name="dvDD_DDA">
          -2 -1 623 118 callgsubr
          -99 256 callsubr
          -26 -73 hvcurveto
          -4 vlineto
          -73 43 -26 81 vhcurveto
          190 callgsubr
          -14 -27 callsubr
          -54 16 -33 33 -16 vhcurveto
          -29 -15 -15 -26 -43 vvcurveto
          -4 vlineto
          -73 43 -26 81 vhcurveto
          190 callgsubr
          -14 -27 callsubr
          -83 38 -33 76 vhcurveto
          96 hlineto
          81 43 33 73 hvcurveto
          16 vlineto
          73 -43 31 -81 vhcurveto
          -81 hlineto
          -67 -27 15 58 58 27 15 67 hvcurveto
          311 callgsubr
          16 116 callsubr
        </CharString>
        <CharString name="dvDD_DDHA">
          -2 -1 623 118 callgsubr
          -99 256 callsubr
          -26 -73 hvcurveto
          -4 vlineto
          -73 43 -26 81 vhcurveto
          190 callgsubr
          -14 -27 callsubr
          -60 20 -34 40 -14 vhcurveto
          -38 -22 -22 -40 -54 vvcurveto
          -57 312 callgsubr
          hlineto
          81 43 43 83 hvcurveto
          5 -18 callsubr
          -4 vlineto
          -68 -27 -31 -67 vhcurveto
          -100 -55 callsubr
          55 -48 callsubr
          76 hlineto
          81 43 33 73 hvcurveto
          16 116 callsubr
        </CharString>
        <CharString name="dvDD_R">
          -17 271 -165 rmoveto
          82 callgsubr
          -10 hlineto
          -54 callsubr
          -361 916 118 callgsubr
          -119 256 callsubr
          -32 -73 hvcurveto
          -17 vlineto
          250 callgsubr
          190 callgsubr
          -52 -27 callsubr
          -83 38 -33 76 vhcurveto
          26 hlineto
          -104 -136 rlineto
          184 callgsubr
          5 -25 callgsubr
        </CharString>
        <CharString name="dvDD_RA">
          -17 -1 623 118 callgsubr
          -119 256 callsubr
          -32 -73 hvcurveto
          -17 vlineto
          250 callgsubr
          190 callgsubr
          -52 -27 callsubr
          -83 38 -33 76 vhcurveto
          26 27 callsubr
          1 -25 callgsubr
        </CharString>
        <CharString name="dvDD_VA">
          -2 213 -93 rmoveto
          -67 -27 31 62 58 35 25 62 hvcurveto
          72 hlineto
          42 31 9 18 21 hvcurveto
          -100 vlineto
          314 callgsubr
          -279 716 118 callgsubr
          -99 256 callsubr
          -26 -73 hvcurveto
          -4 vlineto
          -73 43 -26 81 vhcurveto
          190 callgsubr
          -14 -27 callsubr
          -60 20 -33 39 -15 vhcurveto
          -27 -15 -21 -28 -48 vvcurveto
          -78 43 -43 81 vhcurveto
          65 329 callgsubr
          196 116 callsubr
        </CharString>
        <CharString name="dvDD_YA">
          477 844 223 75 callsubr
          41 -89 hvcurveto
          -193 129 -14 callsubr
          444 -100 callsubr
          -845 33 118 callgsubr
          -121 256 callsubr
          -30 -73 hvcurveto
          -17 vlineto
          250 callgsubr
          190 callgsubr
          -52 -27 callsubr
          -83 38 -33 76 vhcurveto
          96 hlineto
          81 43 33 73 hvcurveto
          54 vlineto
          73 -43 31 -81 vhcurveto
          -81 269 callgsubr
          368 79 callgsubr
          -129 hlineto
          -7 3 -2 5 vhcurveto
          14 hlineto
          -107 callgsubr
          endchar
        </CharString>
        <CharString name="dvDDxA">
          -17 -1 623 118 callgsubr
          -119 256 callsubr
          -32 -73 hvcurveto
          -22 vlineto
          250 callgsubr
          78 hlineto
          67 30 -19 -58 hvcurveto
          -47 vlineto
          -58 -34 -21 -62 vhcurveto
          -92 hlineto
          -56 -30 284 callgsubr
          46 -33 70 vhcurveto
          92 hlineto
          75 51 33 73 hvcurveto
          49 vlineto
          73 -46 31 -81 vhcurveto
          -78 238 callgsubr
          20 124 callgsubr
          159 -21 callsubr
          90 -107 callsubr
          -213 -734 rmoveto
          25 vlineto
          7 -3 2 -5 vhcurveto
          -20 hlineto
          -73 callgsubr
          endchar
        </CharString>
        <CharString name="dvDH">
          -170 213 111 rmoveto
          26 callsubr
          27 vlineto
          66 25 33 64 vhcurveto
          39 hlineto
          7 2 3 5 hvcurveto
          9 vlineto
          5 -2 3 -7 vhcurveto
          -240 hlineto
          194 callsubr
          138 callsubr
          -1 304 callsubr
          110 -107 callsubr
          endchar
        </CharString>
        <CharString name="dvDHA">
          67 224 80 callsubr
          -225 -11 callsubr
          121 264 callsubr
          -50 196 callgsubr
          117 hlineto
          46 38 16 34 16 hvcurveto
          4 -113 hlineto
          -7 3 -2 5 vhcurveto
          14 hlineto
          -107 callgsubr
          -231 -11 callsubr
          91 hlineto
          333 callgsubr
          132 callgsubr
          48 41 callgsubr
          endchar
        </CharString>
        <CharString name="dvDH_MA">
          324 691 347 -40 callsubr
          -314 -62 callgsubr
          34 -100 callsubr
          -380 vlineto
          -68 -35 -31 -67 vhcurveto
          -105 hlineto
          26 callsubr
          27 74 callsubr
          -29 276 callgsubr
          105 hlineto
          81 51 43 83 hvcurveto
          95 -74 callsubr
          -295 vlineto
          -7 3 -2 5 vhcurveto
          14 hlineto
          -107 callgsubr
          endchar
        </CharString>
        <CharString name="dvDH_NA">
          321 377 -79 callsubr
          302 -100 callsubr
          -218 vlineto
          315 callgsubr
          -16 4 -16 hvcurveto
          -2 -1 -2 -2 -2 -2 rrcurveto
          -27 -27 -20 -17 -46 hhcurveto
          -94 hlineto
          182 callsubr
          4 -53 callgsubr
          7 74 callsubr
          -9 187 callgsubr
          -6 196 callgsubr
          94 hlineto
          55 30 25 22 23 hvcurveto
          2 -8 4 -8 3 -8 222 callgsubr
          -320 vlineto
          -7 3 -2 5 vhcurveto
          14 hlineto
          -107 callgsubr
          endchar
        </CharString>
        <CharString name="dvDH_N_YA">
          645 1012 47 callgsubr
          90 24 vlineto
          75 50 35 91 hvcurveto
          32 31 callsubr
          -678 -62 callgsubr
          379 hlineto
          41 callsubr
          -31 172 callsubr
          -238 hlineto
          214 callgsubr
          -24 5 -26 6 -23 hvcurveto
          -24 -25 -20 -16 -44 hhcurveto
          -94 hlineto
          182 callsubr
          4 -53 callgsubr
          4 74 callsubr
          -6 187 callgsubr
          -6 196 callgsubr
          94 hlineto
          48 29 19 20 22 hvcurveto
          3 -11 4 -9 3 -8 168 callsubr
          -1 293 callgsubr
          -20 51 42 vvcurveto
          35 18 28 43 vhcurveto
          182 -92 217 callsubr
          -157 hlineto
          -7 3 -2 5 vhcurveto
          14 hlineto
          -107 callgsubr
          endchar
        </CharString>
        <CharString name="dvDH_R">
          -170 334 -79 callsubr
          81 -107 callsubr
          -90 -580 rmoveto
          39 30 63 50 18 21 177 callsubr
          -33 -35 -18 -13 -53 hhcurveto
          -106 hlineto
          182 callsubr
          30 41 callgsubr
          24 hlineto
          -97 callsubr
          9 vlineto
          -86 callgsubr
          vhcurveto
          -225 -11 callsubr
          121 264 callsubr
          -32 196 callgsubr
          124 -4 hlineto
          0 -31 -20 -46 -36 vhcurveto
          -66 -51 145 callsubr
          endchar
        </CharString>
        <CharString name="dvDH_RA">
          67 81 216 rmoveto
          193 callsubr
          124 -4 hlineto
          0 -31 -20 -46 -36 vhcurveto
          -66 -51 145 callsubr
          125 97 rlineto
          53 41 18 19 0 vvcurveto
          4 -121 hlineto
          -7 3 -2 5 vhcurveto
          14 hlineto
          -107 callgsubr
          -231 -11 callsubr
          91 -100 callsubr
          -363 132 callgsubr
          30 41 callgsubr
          24 hlineto
          -97 callsubr
          9 vlineto
          -86 callgsubr
          vhcurveto
          -225 -11 callsubr
          121 264 callsubr
          endchar
        </CharString>
        <CharString name="dvDH_VA">
          309 377 -79 callsubr
          291 -7 callgsubr
          -101 callgsubr
          -81 -53 -50 -83 hvcurveto
          -123 vlineto
          -31 8 -27 13 -21 vhcurveto
          -25 -25 -22 -15 -44 hhcurveto
          -117 hlineto
          26 callsubr
          27 vlineto
          66 25 33 64 vhcurveto
          39 hlineto
          7 2 3 5 hvcurveto
          9 vlineto
          5 -2 3 -7 vhcurveto
          -240 hlineto
          194 callsubr
          56 30 25 23 22 hvcurveto
          -22 23 33 -12 40 hhcurveto
          -10 callsubr
          13 hlineto
          -107 callgsubr
          endchar
        </CharString>
        <CharString name="dvDH_YA">
          387 754 251 -90 callgsubr
          -377 -62 callgsubr
          78 -14 callgsubr
          -39 11 -32 20 -24 vhcurveto
          -2 -1 -3 -3 -2 -2 rrcurveto
          -27 -27 -21 -16 -46 hhcurveto
          -117 hlineto
          26 callsubr
          27 vlineto
          66 25 33 64 vhcurveto
          39 hlineto
          7 2 3 5 hvcurveto
          9 vlineto
          5 -2 3 -7 vhcurveto
          -240 hlineto
          194 callsubr
          330 callgsubr
          2 2 3 3 1 3 rrcurveto
          -20 25 33 -11 38 hhcurveto
          235 callgsubr
          -157 hlineto
          -7 3 -2 5 vhcurveto
          14 hlineto
          -107 callgsubr
          endchar
        </CharString>
        <CharString name="dvD_BA">
          -17 299 callgsubr
          -24 -16 -18 vhcurveto
          -172 144 rlineto
          2 9 10 1 11 hhcurveto
          -3 -176 rmoveto
          -67 -27 26 62 hvcurveto
          10 vlineto
          30 13 21 23 13 vhcurveto
          180 -150 rlineto
          -8 -15 -20 -4 -22 hhcurveto
          -278 706 72 callgsubr
        </CharString>
        <CharString name="dvD_BHA">
          -7 -76 callsubr
          354 319 callsubr
          -144 237 callsubr
          -38 -32 callsubr
          58 hlineto
          38 34 8 28 18 hvcurveto
          4 -195 -184 hlineto
          183 callgsubr
          22 vlineto
          68 -41 36 -68 vhcurveto
          -7 -11 callsubr
          7 155 callsubr
          -137 vlineto
          -85 callsubr
          71 -95 callgsubr
          183 -126 25 callsubr
          459 15 callgsubr
          -74 callgsubr
          hvcurveto
          -30 104 callgsubr
          -58 -55 callsubr
          36 -48 callsubr
          166 316 callgsubr
          91 -107 callsubr
          endchar
        </CharString>
        <CharString name="dvD_B_RA">
          -14 299 callgsubr
          -25 -16 -17 vhcurveto
          -173 144 rlineto
          2 10 10 1 11 hhcurveto
          -3 -176 rmoveto
          -67 -27 26 62 hvcurveto
          10 vlineto
          30 13 21 23 13 vhcurveto
          180 -150 rlineto
          -8 -15 -20 -4 -22 hhcurveto
          -278 706 216 callgsubr
          -59 26 -43 44 -21 vhcurveto
          -30 -13 -27 -27 -50 vvcurveto
          -11 vlineto
          -78 43 -36 81 vhcurveto
          65 hlineto
          10 10 1 1 9 hvcurveto
          -99 -95 103 callgsubr
          136 137 rlineto
          1 vlineto
          19 21 11 30 38 vvcurveto
          221 15 callgsubr
          -74 callgsubr
          hvcurveto
          -30 104 callgsubr
          -78 -55 callsubr
          96 -26 callgsubr
          81 -107 callsubr
          endchar
        </CharString>
        <CharString name="dvD_DA">
          13 134 259 rmoveto
          -33 326 callgsubr
          101 hlineto
          38 34 8 28 18 hvcurveto
          4 -120 25 callsubr
          231 15 callgsubr
          -74 callgsubr
          hvcurveto
          -30 104 callgsubr
          -101 268 callsubr
          101 -104 callsubr
          -101 206 callsubr
          186 -21 callsubr
          91 -107 callsubr
          -511 -11 callsubr
          373 5 callsubr
          -164 hlineto
          -81 -43 -32 -73 hvcurveto
          -6 vlineto
          -44 19 -30 31 -15 vhcurveto
          endchar
        </CharString>
        <CharString name="dvD_DHA">
          190 -76 callsubr
          551 88 callgsubr
          -81 -53 -53 -83 hvcurveto
          -98 vlineto
          -59 27 -44 44 -20 vhcurveto
          -16 104 callgsubr
          -71 hlineto
          -67 -27 21 58 hvcurveto
          10 vlineto
          55 24 22 70 160 callgsubr
          -41 206 callsubr
          11 -104 callsubr
          -11 212 callsubr
          -12 vlineto
          -73 43 -33 81 vhcurveto
          71 hlineto
          38 83 8 109 hvcurveto
          7 vlineto
          -3 11 12 -1 13 hhcurveto
          51 callgsubr
        </CharString>
        <CharString name="dvD_GA">
          210 callsubr
          -78 vlineto
          -77 45 -51 71 -7 vhcurveto
          -92 vlineto
          -80 -43 -44 callsubr
          53 36 94 hvcurveto
          91 66 vlineto
          38 34 8 28 18 hvcurveto
          4 -140 25 callsubr
          251 155 callgsubr
        </CharString>
        <CharString name="dvD_GHA">
          190 343 90 rmoveto
          -61 -31 -28 -63 vhcurveto
          -71 hlineto
          -67 -27 21 58 hvcurveto
          10 vlineto
          55 24 22 70 160 callgsubr
          -41 206 callsubr
          96 hlineto
          -1 -9 -1 -9 -10 vvcurveto
          -98 vlineto
          -59 27 -44 44 -20 vhcurveto
          -344 517 -92 callsubr
          551 88 callgsubr
          -61 -45 -30 -50 -19 hvcurveto
          -103 212 callsubr
          -12 vlineto
          -73 43 -33 81 vhcurveto
          71 hlineto
          38 83 8 109 hvcurveto
          7 vlineto
          -3 11 12 -1 13 hhcurveto
          51 callgsubr
        </CharString>
        <CharString name="dvD_G_RA">
          210 callsubr
          -78 vlineto
          -77 45 -51 71 -7 vhcurveto
          -92 vlineto
          -80 -43 -44 callsubr
          53 36 94 hvcurveto
          91 66 vlineto
          38 34 8 28 18 hvcurveto
          4 -112 hlineto
          -196 -230 -26 callsubr
          12 hlineto
          7 3 3 6 5 hvcurveto
          165 195 rlineto
          -157 vlineto
          -98 callgsubr
          12 hlineto
          -84 callsubr
          421 155 callgsubr
        </CharString>
        <CharString name="dvD_MA">
          204 571 181 84 callgsubr
          -183 hlineto
          183 callgsubr
          138 15 callgsubr
          -74 callgsubr
          hvcurveto
          -10 104 callgsubr
          -57 -55 callsubr
          16 -48 callsubr
          156 316 callgsubr
          189 -100 callsubr
          -572 -62 callgsubr
          327 319 callsubr
          -134 237 callsubr
          -18 -32 callsubr
          57 hlineto
          38 34 8 28 18 hvcurveto
          4 -172 25 callsubr
          81 -95 callgsubr
          182 -100 callsubr
          -129 vlineto
          -7 3 -2 5 vhcurveto
          14 hlineto
          -107 callgsubr
          endchar
        </CharString>
        <CharString name="dvD_NA">
          451 413 -60 rmoveto
          82 callgsubr
          -10 hlineto
          -54 callsubr
          -503 811 216 callgsubr
          0 callgsubr
          vhcurveto
          78 hlineto
          38 34 8 28 18 hvcurveto
          4 -120 25 callsubr
          231 15 callgsubr
          -74 callgsubr
          hvcurveto
          -30 104 callgsubr
          -78 -55 callsubr
          96 -26 callgsubr
          409 hlineto
          7 2 -3 -5 hvcurveto
          -214 vlineto
          -5 -2 -3 -7 vhcurveto
          208 callgsubr
          188 -100 callsubr
          -324 vlineto
          -7 3 -2 5 vhcurveto
          14 hlineto
          -107 callgsubr
          endchar
        </CharString>
        <CharString name="dvD_R">
          -7 322 -39 rmoveto
          82 callgsubr
          -10 hlineto
          -54 callsubr
          -412 790 rmoveto
          -7 -2 -3 -5 hvcurveto
          -9 vlineto
          -5 2 -3 7 vhcurveto
          354 hlineto
          7 2 -3 -5 hvcurveto
          -119 vlineto
          -5 -2 -3 -7 vhcurveto
          -144 hlineto
          -81 -53 -53 -83 hvcurveto
          -19 callsubr
        </CharString>
        <CharString name="dvD_RA">
          210 callsubr
          -19 callsubr
        </CharString>
        <CharString name="dvD_VA">
          -14 315 callsubr
          314 callgsubr
          -65 224 callsubr
          hvcurveto
          10 vlineto
          51 39 27 58 vhcurveto
          -216 530 72 callgsubr
        </CharString>
        <CharString name="dvD_YA">
          92 209 491 rmoveto
          -81 -43 -32 -73 hvcurveto
          -6 vlineto
          -44 19 -30 36 -15 vhcurveto
          -4 vlineto
          -38 326 callgsubr
          156 hlineto
          38 34 8 28 18 hvcurveto
          4 -90 hlineto
          -7 3 -2 5 vhcurveto
          14 hlineto
          -107 callgsubr
          -591 -11 callsubr
          259 -100 callsubr
          -91 -64 callsubr
          22 -28 rmoveto
          0 callsubr
          109 -95 callgsubr
          145 -100 callsubr
          -410 104 callgsubr
          -156 268 callsubr
          46 -104 callsubr
          -46 206 callsubr
          endchar
        </CharString>
        <CharString name="dvE">
          30 -76 callsubr
          92 -100 callsubr
          -422 -32 callsubr
          184 hlineto
          303 callgsubr
          -67 -37 41 68 hvcurveto
          421 289 callgsubr
          -3 -5 hvcurveto
          -167 vlineto
          -80 -43 -22 -51 305 callsubr
          45 104 callsubr
          167 -95 callgsubr
          67 -107 callsubr
          endchar
        </CharString>
        <CharString name="dvEcandra">
          25 308 732 -4 callsubr
          -248 -109 -92 callsubr
          92 -100 callsubr
          -422 -32 callsubr
          184 hlineto
          303 callgsubr
          -67 -37 41 68 hvcurveto
          421 289 callgsubr
          -3 -5 hvcurveto
          -167 vlineto
          -80 -43 -22 -51 305 callsubr
          45 104 callsubr
          167 -95 callgsubr
          67 -107 callsubr
          endchar
        </CharString>
        <CharString name="dvEight">
          26 209 338 rmoveto
          260 callsubr
          104 -204 190 callsubr
          -105 -49 callsubr
          70 269 callsubr
          30 306 rmoveto
          232 callgsubr
          105 hlineto
          287 callsubr
          endchar
        </CharString>
        <CharString name="dvEyelash">
          -305 193 80 callsubr
          -194 -11 callsubr
          169 -232 214 callsubr
          -118 137 callgsubr
          endchar
        </CharString>
        <CharString name="dvEyelash_HA">
          117 -76 callsubr
          478 -100 callsubr
          -109 -64 callsubr
          -138 hlineto
          -67 -41 -26 -53 -12 hvcurveto
          -90 137 callgsubr
          86 -9 hlineto
          250 callsubr
          vhcurveto
          -4 vlineto
          -44 -19 -24 -39 -59 vvcurveto
          -65 callsubr
          90 -107 callsubr
          endchar
        </CharString>
        <CharString name="dvEyelash_YA">
          207 574 251 -90 callgsubr
          -575 -62 callgsubr
          276 234 callsubr
          -144 137 callgsubr
          89 -111 217 callsubr
          -157 hlineto
          -7 3 -2 5 vhcurveto
          14 hlineto
          -107 callgsubr
          endchar
        </CharString>
        <CharString name="dvFive">
          -21 391 265 rmoveto
          110 callgsubr
          96 hlineto
          37 callsubr
          endchar
        </CharString>
        <CharString name="dvFour">
          -59 348 133 callsubr
        </CharString>
        <CharString name="dvG">
          -239 259 80 callsubr
          -260 -31 callsubr
          endchar
        </CharString>
        <CharString name="dvGA">
          -11 1 callgsubr
          172 -100 callsubr
          -581 vlineto
          -7 3 -2 5 vhcurveto
          14 hlineto
          -107 callgsubr
          endchar
        </CharString>
        <CharString name="dvGH">
          -170 213 111 rmoveto
          26 callsubr
          27 99 callgsubr
          239 -107 callsubr
          -440 hlineto
          194 callsubr
          138 callsubr
          endchar
        </CharString>
        <CharString name="dvGHA">
          67 425 598 292 callsubr
          -370 vlineto
          -68 -37 -41 -67 vhcurveto
          -117 hlineto
          26 callsubr
          27 99 callgsubr
          -54 -237 rmoveto
          209 callgsubr
          46 38 16 34 16 hvcurveto
          4 -124 hlineto
          -7 3 -2 5 vhcurveto
          14 hlineto
          -107 callgsubr
          -566 -11 callsubr
          121 38 callsubr
          -29 101 callgsubr
          endchar
        </CharString>
        <CharString name="dvGH_MA">
          322 689 347 -40 callsubr
          -271 -380 rmoveto
          -68 -35 -31 -67 vhcurveto
          -103 hlineto
          26 callsubr
          33 vlineto
          63 26 30 63 vhcurveto
          209 -100 callsubr
          -419 -62 callgsubr
          121 -4 hlineto
          -28 -16 -11 -28 -45 vvcurveto
          -34 276 callgsubr
          103 hlineto
          81 51 43 83 hvcurveto
          95 -74 callsubr
          -295 vlineto
          -7 3 -2 5 vhcurveto
          14 hlineto
          -107 callgsubr
          endchar
        </CharString>
        <CharString name="dvGH_NA">
          321 688 372 rmoveto
          315 callgsubr
          -18 4 -18 hvcurveto
          -1 -1 rlineto
          -27 -27 -20 -17 -46 hhcurveto
          -99 hlineto
          182 callsubr
          4 -53 callgsubr
          7 99 callgsubr
          479 -100 callsubr
          -689 -62 callgsubr
          121 38 callsubr
          -9 187 callgsubr
          -6 196 callgsubr
          99 hlineto
          51 29 21 21 22 hvcurveto
          4 -10 3 -10 4 -9 117 callsubr
          -13 39 187 callsubr
          -320 vlineto
          -7 3 -2 5 vhcurveto
          14 hlineto
          -107 callgsubr
          endchar
        </CharString>
        <CharString name="dvGH_R">
          -170 351 68 rmoveto
          46 35 23 19 24 22 156 callsubr
          -97 211 callgsubr
          203 -107 callsubr
          -404 -11 callsubr
          121 38 callsubr
          -29 187 callgsubr
          -37 196 callgsubr
          122 -4 hlineto
          0 -22 -12 -47 -35 vhcurveto
          -105 -78 145 callsubr
          endchar
        </CharString>
        <CharString name="dvGH_RA">
          67 81 216 rmoveto
          193 callsubr
          122 -4 hlineto
          0 -22 -12 -47 -35 vhcurveto
          -105 -78 145 callsubr
          109 82 rlineto
          90 68 30 30 0 vvcurveto
          4 -126 hlineto
          -7 3 -2 5 vhcurveto
          14 hlineto
          -107 callgsubr
          -566 -11 callsubr
          121 38 callsubr
          -29 187 callgsubr
          344 345 292 callsubr
          -363 vlineto
          -68 -37 -41 -67 vhcurveto
          -117 211 callgsubr
          endchar
        </CharString>
        <CharString name="dvGH_YA">
          365 732 251 -90 callgsubr
          -519 -479 rmoveto
          26 callsubr
          27 99 callgsubr
          233 -14 callgsubr
          -45 15 -36 26 -25 vhcurveto
          -24 -25 -21 -14 -43 hhcurveto
          -331 512 rmoveto
          194 callsubr
          57 30 27 23 23 hvcurveto
          -14 23 27 -7 32 hhcurveto
          235 callgsubr
          -157 hlineto
          -7 3 -2 5 vhcurveto
          14 hlineto
          -107 callgsubr
          endchar
        </CharString>
        <CharString name="dvG_BA">
          243 462 52 callsubr
          -33 -18 -45 hhcurveto
          -507 47 callsubr
          128 -80 callsubr
          426 -100 callsubr
          -369 vlineto
          -7 0 -7 -1 -6 vhcurveto
          -224 236 205 callsubr
          -81 -53 -50 -83 hvcurveto
          120 callsubr
          44 -52 callsubr
          -131 hlineto
          -7 3 -2 5 vhcurveto
          14 hlineto
          -107 callgsubr
          endchar
        </CharString>
        <CharString name="dvG_BHA">
          247 516 73 callgsubr
          -265 -31 callsubr
          89 28 callgsubr
          223 hlineto
          7 2 -3 -5 hvcurveto
          -295 vlineto
          -7 3 -2 5 vhcurveto
          14 hlineto
          -107 callgsubr
          endchar
        </CharString>
        <CharString name="dvG_BH_YA">
          588 955 251 -90 callgsubr
          -430 -62 callgsubr
          131 -58 callgsubr
          -47 -211 vlineto
          127 callgsubr
          -7 hlineto
          -3 hlineto
          -4 hlineto
          -260 -31 callsubr
          84 hlineto
          4 hlineto
          3 hlineto
          7 28 callgsubr
          210 -57 217 callsubr
          -157 hlineto
          -7 3 -2 5 vhcurveto
          14 hlineto
          -107 callgsubr
          endchar
        </CharString>
        <CharString name="dvG_DA">
          247 1 callgsubr
          432 88 callgsubr
          107 callgsubr
          endchar
        </CharString>
        <CharString name="dvG_DHA">
          325 592 -79 callsubr
          91 hlineto
          333 callgsubr
          132 callgsubr
          48 41 callgsubr
          24 hlineto
          -97 callsubr
          9 vlineto
          -86 callgsubr
          vhcurveto
          -483 -31 callsubr
          203 264 callsubr
          -50 196 callgsubr
          117 hlineto
          46 38 16 34 16 hvcurveto
          4 -113 hlineto
          -7 3 -2 5 vhcurveto
          14 hlineto
          -107 callgsubr
          endchar
        </CharString>
        <CharString name="dvG_DH_VA">
          579 599 -79 callsubr
          339 -7 callgsubr
          -101 callgsubr
          -81 -53 -50 -83 hvcurveto
          -123 vlineto
          -31 8 -27 13 -21 vhcurveto
          -25 -25 -22 -15 -44 hhcurveto
          -127 hlineto
          26 callsubr
          27 285 callsubr
          -500 -31 callsubr
          205 38 callsubr
          -29 276 callgsubr
          127 hlineto
          56 30 25 23 22 hvcurveto
          -22 23 33 -12 40 hhcurveto
          -10 callsubr
          13 hlineto
          -107 callgsubr
          endchar
        </CharString>
        <CharString name="dvG_DH_YA">
          652 1019 251 -90 callgsubr
          -420 -62 callgsubr
          121 -14 callgsubr
          -40 12 -33 21 -24 vhcurveto
          -4 -4 rlineto
          -27 -27 -21 -16 -46 hhcurveto
          -127 hlineto
          26 callsubr
          27 285 callsubr
          -500 -31 callsubr
          205 38 callsubr
          -29 276 callgsubr
          127 hlineto
          330 callgsubr
          2 2 1 1 2 2 rrcurveto
          -18 24 31 -10 37 hhcurveto
          235 callgsubr
          -157 hlineto
          -7 3 -2 5 vhcurveto
          14 hlineto
          -107 callgsubr
          endchar
        </CharString>
        <CharString name="dvG_GA">
          239 1 callgsubr
          202 -80 callsubr
          172 -100 callsubr
          -581 vlineto
          -7 3 -2 5 vhcurveto
          14 hlineto
          -107 callgsubr
          endchar
        </CharString>
        <CharString name="dvG_GHA">
          325 692 220 rmoveto
          -24 callgsubr
          -117 hlineto
          26 callsubr
          27 99 callgsubr
          225 -100 callsubr
          -693 -10 callgsubr
          203 156 callgsubr
          46 38 16 34 16 hvcurveto
          4 -124 hlineto
          -7 3 -2 5 vhcurveto
          14 hlineto
          -107 callgsubr
          endchar
        </CharString>
        <CharString name="dvG_JA">
          296 1 callgsubr
          479 hlineto
          7 2 -3 -5 hvcurveto
          -167 vlineto
          -5 -2 -3 -7 vhcurveto
          -322 hlineto
          -66 callsubr
          35 -30 17 vhcurveto
          4 174 7 callsubr
          -370 vlineto
          -7 3 -2 5 vhcurveto
          14 hlineto
          -107 callgsubr
          endchar
        </CharString>
        <CharString name="dvG_LA">
          427 1 callgsubr
          610 165 callgsubr
          -4 hlineto
          4 callsubr
          -136 vlineto
          -89 callgsubr
          38 25 66 67 37 -28 -78 vhcurveto
          -300 vlineto
          -7 3 -2 5 vhcurveto
          14 hlineto
          -107 callgsubr
          endchar
        </CharString>
        <CharString name="dvG_MA">
          247 614 347 -40 callsubr
          -615 -10 callgsubr
          159 -44 callgsubr
          223 hlineto
          7 2 -3 -5 hvcurveto
          -295 vlineto
          -7 3 -2 5 vhcurveto
          14 hlineto
          -107 callgsubr
          endchar
        </CharString>
        <CharString name="dvG_NA">
          222 1 callgsubr
          405 hlineto
          7 2 -3 -5 hvcurveto
          -214 vlineto
          -5 -2 -3 -7 vhcurveto
          208 callgsubr
          188 -100 callsubr
          -324 vlineto
          -7 3 -2 5 vhcurveto
          14 hlineto
          -107 callgsubr
          endchar
        </CharString>
        <CharString name="dvG_NNA">
          444 591 87 callgsubr
          -592 -10 callgsubr
          162 -3 callsubr
          175 -100 callsubr
          -581 vlineto
          -7 3 -2 5 vhcurveto
          14 hlineto
          -107 callgsubr
          endchar
        </CharString>
        <CharString name="dvG_N_YA">
          564 931 251 -90 callgsubr
          -932 -10 callgsubr
          457 234 callsubr
          -238 128 callsubr
          -112 217 callsubr
          -157 hlineto
          -7 3 -2 5 vhcurveto
          14 hlineto
          -107 callgsubr
          endchar
        </CharString>
        <CharString name="dvG_R">
          -239 374 288 134 callsubr
          -248 -292 -26 callsubr
          12 hlineto
          7 3 3 6 5 hvcurveto
          121 589 rmoveto
          -105 callgsubr
          -260 -31 callsubr
          endchar
        </CharString>
        <CharString name="dvG_RA">
          -11 1 callgsubr
          172 -100 callsubr
          -283 vlineto
          -249 -292 -26 callsubr
          12 hlineto
          7 3 3 6 5 hvcurveto
          218 258 rlineto
          -258 vlineto
          -7 3 -2 5 vhcurveto
          14 hlineto
          -107 callgsubr
          endchar
        </CharString>
        <CharString name="dvG_R_YA">
          307 674 251 -90 callgsubr
          -675 -10 callgsubr
          200 106 callgsubr
          111 -4 hlineto
          170 callgsubr
          111 92 rlineto
          4 -147 hlineto
          -7 3 -2 5 vhcurveto
          14 hlineto
          -107 callgsubr
          endchar
        </CharString>
        <CharString name="dvG_SA">
          329 696 329 -16 callsubr
          -697 -10 callgsubr
          265 -82 callsubr
          -162 275 rlineto
          357 -100 callsubr
          -276 vlineto
          -7 3 -2 5 vhcurveto
          14 hlineto
          -107 callgsubr
          endchar
        </CharString>
        <CharString name="dvG_VA">
          237 1 callgsubr
          421 -7 callgsubr
          -101 callgsubr
          -81 -53 -50 -83 hvcurveto
          -123 vlineto
          3 callsubr
          -10 callsubr
          13 hlineto
          -107 callgsubr
          endchar
        </CharString>
        <CharString name="dvG_YA">
          320 687 251 -90 callgsubr
          -688 -10 callgsubr
          213 106 callgsubr
          235 callgsubr
          -157 hlineto
          -7 3 -2 5 vhcurveto
          14 hlineto
          -107 callgsubr
          endchar
        </CharString>
        <CharString name="dvGx">
          -239 259 80 callsubr
          -260 -31 callsubr
          -31 -606 rmoveto
          25 vlineto
          7 -3 2 -5 vhcurveto
          -20 hlineto
          -73 callgsubr
          endchar
        </CharString>
        <CharString name="dvGxA">
          -11 1 callgsubr
          172 -100 callsubr
          -581 vlineto
          -7 3 -2 5 vhcurveto
          14 hlineto
          -107 callgsubr
          -349 -644 rmoveto
          25 vlineto
          7 -3 2 -5 vhcurveto
          -20 hlineto
          -73 callgsubr
          endchar
        </CharString>
        <CharString name="dvGx_R">
          -239 259 80 callsubr
          -260 -31 callsubr
          199 -310 134 callsubr
          -248 -292 -26 callsubr
          12 hlineto
          7 3 3 6 5 hvcurveto
          110 -90 rmoveto
          25 vlineto
          7 -3 2 -5 vhcurveto
          -20 hlineto
          -73 callgsubr
          endchar
        </CharString>
        <CharString name="dvGx_RA">
          -11 216 -47 rmoveto
          -73 callgsubr
          106 callsubr
          -237 670 -92 callsubr
          128 -80 callsubr
          172 -100 callsubr
          -283 vlineto
          -249 -292 -26 callsubr
          12 hlineto
          7 3 3 6 5 hvcurveto
          218 258 rlineto
          -258 vlineto
          -7 3 -2 5 vhcurveto
          14 hlineto
          -107 callgsubr
          endchar
        </CharString>
        <CharString name="dvH">
          -11 247 -92 rmoveto
          -54 callsubr
          -89 128 rlineto
          82 callgsubr
          92 690 292 callsubr
          -109 vlineto
          -5 -2 -3 -7 vhcurveto
          -138 126 callsubr
          -65 callsubr
          90 -107 callsubr
          -488 -11 callsubr
          endchar
        </CharString>
        <CharString name="dvHA">
          -11 349 598 292 callsubr
          -109 vlineto
          -5 -2 -3 -7 vhcurveto
          -138 126 callsubr
          -65 callsubr
          90 -107 callsubr
          -488 -11 callsubr
          endchar
        </CharString>
        <CharString name="dvHA_mU">
          3 349 598 292 callsubr
          -109 vlineto
          -5 -2 -3 -7 vhcurveto
          -138 126 callsubr
          -37 -32 callsubr
          89 hlineto
          78 13 -30 -58 -74 -34 -30 -77 hvcurveto
          -23 hlineto
          -102 -35 66 63 -35 253 callsubr
          -60 28 51 -82 119 hhcurveto
          22 hlineto
          83 58 38 94 77 -28 39 -93 hvcurveto
          -89 -55 callsubr
          35 vlineto
          67 35 42 64 vhcurveto
          70 hlineto
          67 27 -31 -68 hvcurveto
          -25 vlineto
          -85 callsubr
          26 vlineto
          83 -43 43 -81 vhcurveto
          -70 266 callsubr
          161 149 callsubr
          104 -107 callsubr
          -502 -11 callsubr
          endchar
        </CharString>
        <CharString name="dvHA_mUU">
          3 -76 callsubr
          350 -100 callsubr
          -109 vlineto
          -5 -2 -3 -7 vhcurveto
          -138 126 callsubr
          -15 vlineto
          -59 24 -42 43 -20 vhcurveto
          -37 -19 -13 -39 -54 vvcurveto
          142 callgsubr
          -39 -55 callsubr
          13 vlineto
          67 35 42 64 vhcurveto
          70 hlineto
          67 27 -31 -68 hvcurveto
          -25 vlineto
          -85 callsubr
          26 vlineto
          83 -43 43 -81 vhcurveto
          -70 266 callsubr
          161 149 callsubr
          90 -107 callsubr
          endchar
        </CharString>
        <CharString name="dvHA_mvR">
          7 -76 callsubr
          339 -100 callsubr
          -109 -64 callsubr
          -138 hlineto
          -81 -43 -34 -78 -55 22 -29 41 -14 hvcurveto
          -4 vlineto
          -44 -19 -24 -39 -59 vvcurveto
          -107 100 callsubr
          105 vlineto
          67 35 42 64 vhcurveto
          50 hlineto
          -19 -19 -6 -32 -47 vvcurveto
          -88 20 -38 81 vhcurveto
          96 -104 callsubr
          -96 hlineto
          -65 -6 34 64 65 4 33 67 hvcurveto
          24 hlineto
          59 15 -21 -58 hvcurveto
          -5 vlineto
          -85 callsubr
          6 vlineto
          76 -25 30 -79 vhcurveto
          -150 hlineto
          -67 -27 21 62 63 29 21 65 hvcurveto
          161 hlineto
          9 7 8 10 hvcurveto
          127 208 callsubr
        </CharString>
        <CharString name="dvH_LA">
          619 282 -119 rmoveto
          82 callgsubr
          -10 hlineto
          -54 callsubr
          -372 870 -92 callsubr
          350 -100 callsubr
          -109 vlineto
          -5 -2 -3 -7 vhcurveto
          -138 126 callsubr
          -65 callsubr
          580 165 callgsubr
          -4 hlineto
          4 callsubr
          -136 vlineto
          -89 callgsubr
          38 25 66 67 37 -28 -78 vhcurveto
          -300 vlineto
          -7 3 -2 5 vhcurveto
          14 hlineto
          -107 callgsubr
          endchar
        </CharString>
        <CharString name="dvH_MA">
          250 617 181 84 callgsubr
          -209 hlineto
          183 callgsubr
          63 vlineto
          12 -9 12 -20 vhcurveto
          -158 144 callsubr
          208 -100 callsubr
          -618 -62 callgsubr
          353 30 callsubr
          150 -100 callsubr
          -196 vlineto
          -98 callgsubr
          12 hlineto
          -84 callsubr
          101 -95 callgsubr
          208 -100 callsubr
          -165 vlineto
          -85 callsubr
          617 -106 callgsubr
          endchar
        </CharString>
        <CharString name="dvH_NA">
          -11 -76 callsubr
          360 30 callsubr
          150 hlineto
          -74 -61 rlineto
          -31 -26 -14 -26 -30 vvcurveto
          -29 11 -26 30 -27 vhcurveto
          -4 5 2 -1 3 325 callsubr
          2 2 hvcurveto
          5 5 rlineto
          2 2 1 2 3 vvcurveto
          4 -4 4 -3 3 vhcurveto
          -20 19 -9 17 25 vvcurveto
          22 10 18 23 20 vhcurveto
          98 82 rlineto
          -181 vlineto
          -85 callsubr
          202 -103 callgsubr
          -213 144 callsubr
          80 -107 callsubr
          endchar
        </CharString>
        <CharString name="dvH_NNA">
          643 292 -100 rmoveto
          82 callgsubr
          -10 hlineto
          -54 callsubr
          409 546 rmoveto
          8 callgsubr
          197 -100 callsubr
          -791 -62 callgsubr
          350 -100 callsubr
          -109 vlineto
          -5 -2 -3 -7 vhcurveto
          -138 126 callsubr
          -65 callsubr
          139 -3 callsubr
          175 -100 callsubr
          -581 vlineto
          -7 3 -2 5 vhcurveto
          14 hlineto
          -107 callgsubr
          endchar
        </CharString>
        <CharString name="dvH_R">
          -9 280 -117 rmoveto
          82 callgsubr
          -10 hlineto
          -54 callsubr
          -370 868 -92 callsubr
          348 30 callsubr
          155 hlineto
          -145 -162 rlineto
          -3 -3 -3 -4 -4 vvcurveto
          -4 -95 callsubr
          14 153 callsubr
          148 166 rlineto
          -178 vlineto
          -85 callsubr
          186 vlineto
          14 -11 10 -14 vhcurveto
          -194 144 callsubr
          94 -107 callsubr
          endchar
        </CharString>
        <CharString name="dvH_RA">
          -9 -76 callsubr
          348 30 callsubr
          155 hlineto
          -145 -162 rlineto
          -3 -3 -3 -4 -4 vvcurveto
          -4 -95 callsubr
          14 153 callsubr
          148 166 rlineto
          -178 vlineto
          -85 callsubr
          186 vlineto
          14 -11 10 -14 vhcurveto
          -194 144 callsubr
          94 -107 callsubr
          endchar
        </CharString>
        <CharString name="dvH_VA">
          419 282 -101 rmoveto
          82 callgsubr
          -10 hlineto
          -54 callsubr
          -372 852 -92 callsubr
          350 -100 callsubr
          -109 vlineto
          -5 -2 -3 -7 vhcurveto
          -138 126 callsubr
          -65 callsubr
          381 -7 callgsubr
          -101 callgsubr
          -81 -53 -50 -83 hvcurveto
          -123 vlineto
          3 callsubr
          -10 callsubr
          13 hlineto
          -107 callgsubr
          endchar
        </CharString>
        <CharString name="dvH_YA">
          287 654 88 rmoveto
          -70 -44 -46 -70 vhcurveto
          -66 hlineto
          -72 -42 44 77 hvcurveto
          24 hlineto
          75 50 25 81 61 -35 39 -89 hvcurveto
          -181 hlineto
          -67 -27 16 57 59 29 14 65 hvcurveto
          171 149 callsubr
          245 -100 callsubr
          -655 -62 callgsubr
          321 callsubr
          -109 -64 callsubr
          -148 hlineto
          -81 -43 -23 -78 -53 22 -27 35 -9 hvcurveto
          -4 vlineto
          -43 -15 -19 -42 -59 vvcurveto
          -117 -32 callsubr
          119 -104 callsubr
          -119 -55 callsubr
          115 vlineto
          67 32 42 67 vhcurveto
          181 hlineto
          63 31 -16 -56 -59 -30 -19 201 callsubr
          -21 vlineto
          -93 150 callsubr
          66 hlineto
          50 43 24 35 17 hvcurveto
          4 -106 hlineto
          -85 callsubr
          693 -106 callgsubr
          endchar
        </CharString>
        <CharString name="dvI">
          -16 289 246 rmoveto
          21 callgsubr
          -483 hlineto
          126 callgsubr
          endchar
        </CharString>
        <CharString name="dvII">
          -16 293 739 rmoveto
          115 callsubr
          57 -104 callsubr
          -56 228 callsubr
          -58 vlineto
          -33 5 -12 15 -9 vhcurveto
          -4 -284 vlineto
          126 callgsubr
          87 hlineto
          21 callgsubr
          -127 hlineto
          -51 -11 10 42 hvcurveto
          endchar
        </CharString>
        <CharString name="dvII_Anusvara">
          -16 293 739 rmoveto
          115 callsubr
          57 -104 callsubr
          -56 228 callsubr
          -58 vlineto
          -33 5 -12 15 -9 vhcurveto
          -4 -284 vlineto
          126 callgsubr
          87 hlineto
          21 callgsubr
          -127 hlineto
          -51 -11 10 42 hvcurveto
          121 46 rmoveto
          -25 callsubr
          endchar
        </CharString>
        <CharString name="dvJ">
          -191 411 80 callsubr
          -412 -11 callsubr
          412 -211 -13 callsubr
          -329 hlineto
          -66 callsubr
          35 -30 17 vhcurveto
          4 vlineto
          endchar
        </CharString>
        <CharString name="dvJA">
          46 230 387 rmoveto
          174 -100 callsubr
          -370 vlineto
          -7 3 -2 5 vhcurveto
          14 hlineto
          -107 callgsubr
          -545 -11 callsubr
          405 hlineto
          7 2 -3 -5 hvcurveto
          -167 vlineto
          -5 -2 -3 -7 vhcurveto
          -322 hlineto
          -66 callsubr
          35 -30 17 vhcurveto
          endchar
        </CharString>
        <CharString name="dvJH">
          -57 541 278 -13 callsubr
          -337 hlineto
          139 callgsubr
          183 -107 callsubr
          -542 hlineto
          -47 callgsubr
          endchar
        </CharString>
        <CharString name="dvJHA">
          172 310 598 292 callsubr
          -89 -64 callsubr
          -106 hlineto
          -81 -43 -32 -73 hvcurveto
          -15 vlineto
          250 callgsubr
          61 hlineto
          60 24 -22 -55 hvcurveto
          -35 vlineto
          -58 -27 -21 -67 vhcurveto
          -58 202 callsubr
          30 15 callgsubr
          -74 callgsubr
          hvcurveto
          -201 vlineto
          -98 callgsubr
          12 hlineto
          -84 callsubr
          90 4 vlineto
          -28 18 34 -8 38 hhcurveto
          58 hlineto
          81 43 33 73 hvcurveto
          37 vlineto
          34 -9 28 -21 14 vhcurveto
          181 -100 callsubr
          -251 vlineto
          -7 3 -2 5 vhcurveto
          14 hlineto
          -107 callgsubr
          -671 -11 callsubr
          531 hmoveto
          -99 callsubr
          -286 -64 callsubr
          -326 hlineto
          -67 -27 19 58 hvcurveto
          15 94 callsubr
          endchar
        </CharString>
        <CharString name="dvJH_MA">
          446 813 347 -40 callsubr
          -609 -284 rmoveto
          139 callgsubr
          175 -100 callsubr
          -284 vlineto
          -543 317 rmoveto
          -47 callgsubr
          193 -85 hlineto
          -85 callsubr
          111 -74 callsubr
          -295 vlineto
          -7 3 -2 5 vhcurveto
          14 hlineto
          -107 callgsubr
          endchar
        </CharString>
        <CharString name="dvJH_NA">
          444 811 189 callsubr
          -50 -28 -25 -37 -9 hvcurveto
          -322 hlineto
          139 callgsubr
          444 -100 callsubr
          -812 33 rmoveto
          -47 callgsubr
          174 hlineto
          -20 6 -26 162 callsubr
          188 -100 callsubr
          -324 vlineto
          -7 3 -2 5 vhcurveto
          14 hlineto
          -107 callgsubr
          endchar
        </CharString>
        <CharString name="dvJH_R">
          -73 333 465 rmoveto
          0 callsubr
          107 vlineto
          5 2 3 7 vhcurveto
          183 -107 callsubr
          -542 hlineto
          -47 callgsubr
          173 -108 hlineto
          -171 -188 103 callgsubr
          146 166 rlineto
          14 14 3 21 21 vvcurveto
          100 -103 callgsubr
          -337 hlineto
          -67 -27 19 58 hvcurveto
          5 vlineto
          58 27 19 67 vhcurveto
          endchar
        </CharString>
        <CharString name="dvJH_RA">
          182 204 306 rmoveto
          139 callgsubr
          182 -100 callsubr
          -276 -64 callsubr
          -541 317 rmoveto
          -47 callgsubr
          191 -100 callsubr
          -73 vlineto
          -198 -215 103 callgsubr
          162 179 rlineto
          -146 vlineto
          -7 3 -2 5 vhcurveto
          14 hlineto
          -107 callgsubr
          endchar
        </CharString>
        <CharString name="dvJH_YA">
          511 878 251 -90 callgsubr
          -674 -284 rmoveto
          139 callgsubr
          221 -58 callgsubr
          -80 vlineto
          -525 317 rmoveto
          -47 callgsubr
          175 -23 217 callsubr
          -157 hlineto
          -7 3 -2 5 vhcurveto
          14 hlineto
          -107 callgsubr
          endchar
        </CharString>
        <CharString name="dvJ_BA">
          314 533 52 callsubr
          -33 -18 -45 hhcurveto
          -578 47 callsubr
          673 -100 callsubr
          -369 vlineto
          -7 0 -7 -1 -6 vhcurveto
          -224 236 205 callsubr
          -61 -45 -28 -49 -18 hvcurveto
          -327 hlineto
          -66 callsubr
          35 -30 17 vhcurveto
          4 171 vlineto
          -1 -9 -1 -9 -10 vvcurveto
          120 callsubr
          44 -52 callsubr
          -131 hlineto
          -7 3 -2 5 vhcurveto
          14 hlineto
          -107 callgsubr
          endchar
        </CharString>
        <CharString name="dvJ_DA">
          321 -76 callsubr
          682 88 callgsubr
          -46 -38 -17 -31 -23 hvcurveto
          -348 hlineto
          -66 callsubr
          35 -30 17 vhcurveto
          4 184 vlineto
          -7 -18 -4 -20 -22 vvcurveto
          -98 -32 callsubr
          51 callgsubr
        </CharString>
        <CharString name="dvJ_DDA">
          305 -76 callsubr
          667 293 callsubr
          -53 -36 -14 -29 -19 hvcurveto
          -346 hlineto
          -66 callsubr
          35 -30 17 vhcurveto
          4 186 vlineto
          -3 -10 -1 -11 -13 vvcurveto
          -17 vlineto
          250 callgsubr
          190 callgsubr
          -52 -27 callsubr
          -83 38 -33 76 vhcurveto
          96 -25 callgsubr
        </CharString>
        <CharString name="dvJ_JA">
          405 382 387 -13 callsubr
          -299 hlineto
          -66 callsubr
          35 -30 17 vhcurveto
          4 vlineto
          358 hmoveto
          174 -100 callsubr
          -370 vlineto
          -7 3 -2 5 vhcurveto
          14 hlineto
          -107 callgsubr
          -904 -11 callsubr
          764 -100 callsubr
          -167 -64 callsubr
          -292 -91 callsubr
          37 hlineto
          51 43 -22 -80 hvcurveto
          -79 6 callgsubr
          -117 hlineto
          256 callgsubr
          72 53 36 94 hvcurveto
          79 vlineto
          46 -13 35 -30 17 vhcurveto
          endchar
        </CharString>
        <CharString name="dvJ_JHA">
          501 868 304 84 callgsubr
          -326 hlineto
          -67 -27 19 58 hvcurveto
          15 94 callsubr
          172 -100 callsubr
          -869 -62 callgsubr
          640 -100 callsubr
          -89 -64 callsubr
          -106 hlineto
          -70 -42 -24 -54 -10 hvcurveto
          0 -329 vlineto
          -66 callsubr
          35 -30 17 vhcurveto
          4 179 -14 vlineto
          250 callgsubr
          61 hlineto
          60 24 -22 -55 hvcurveto
          -35 vlineto
          -58 -27 -21 -67 vhcurveto
          -58 202 callsubr
          30 15 callgsubr
          -74 callgsubr
          hvcurveto
          -201 vlineto
          -98 callgsubr
          12 hlineto
          -84 callsubr
          90 4 vlineto
          -28 18 34 -8 38 hhcurveto
          58 hlineto
          81 43 33 73 hvcurveto
          37 vlineto
          34 -9 28 -21 14 vhcurveto
          181 -100 callsubr
          -251 vlineto
          -7 3 -2 5 vhcurveto
          14 hlineto
          -107 callgsubr
          endchar
        </CharString>
        <CharString name="dvJ_J_NYA">
          446 -76 callsubr
          805 5 callsubr
          -286 hlineto
          -56 -37 -15 -33 -18 hvcurveto
          -325 hlineto
          -66 callsubr
          35 -30 17 vhcurveto
          4 167 vlineto
          -2 -9 -1 -9 -11 vvcurveto
          4 callgsubr
          286 -100 callsubr
          -418 vlineto
          -7 3 -2 5 vhcurveto
          14 hlineto
          -107 callgsubr
          endchar
        </CharString>
        <CharString name="dvJ_J_VA">
          757 232 387 rmoveto
          141 -104 callsubr
          -289 hlineto
          -66 callsubr
          35 -30 17 vhcurveto
          -233 240 -92 callsubr
          1032 -7 callgsubr
          -101 callgsubr
          -58 -44 -26 -45 -20 hvcurveto
          -303 166 callgsubr
          186 vlineto
          -2 -11 -1 -11 -12 vvcurveto
          -123 vlineto
          3 callsubr
          -10 callsubr
          13 hlineto
          -107 callgsubr
          endchar
        </CharString>
</ttFont>
